<?xml version="1.0" encoding="UTF-8"?>
<svg id="Layer_6" data-name="Layer 6" xmlns="http://www.w3.org/2000/svg" xmlns:xlink="http://www.w3.org/1999/xlink" viewBox="0 0 200 200">
  <defs>
    <style>
      .cls-1, .cls-2 {
        fill: none;
      }

      .cls-3 {
        stroke: #fff;
      }

      .cls-3, .cls-4 {
        fill: #fff;
      }

      .cls-3, .cls-2 {
        stroke-linecap: round;
        stroke-linejoin: round;
        stroke-width: 4px;
      }

      .cls-5 {
        fill: url(#linear-gradient);
      }

      .cls-6 {
        fill: #2b97b7;
      }

      .cls-7 {
        clip-path: url(#clippath);
      }

      .cls-2 {
        stroke: #661b1a;
      }
    </style>
    <clipPath id="clippath">
      <rect class="cls-1" x="-.39" y="0" width="200" height="200"/>
    </clipPath>
    <linearGradient id="linear-gradient" x1="-6.55" y1="247.12" x2="197.65" y2="247.12" gradientTransform="translate(194.66 300.83) rotate(-180)" gradientUnits="userSpaceOnUse">
      <stop offset=".03" stop-color="#f2684a"/>
      <stop offset="1" stop-color="#c12c3f"/>
    </linearGradient>
  </defs>
  <g class="cls-7">
    <rect class="cls-6" width="200" height="200"/>
    <path class="cls-5" d="M1.29-36.82c6.43-8.99,17.77-13.02,62.19-14.47,81.46-2.66,122.2-3.99,134.56,17.76,8.44,14.85-.72,36.05-19.39,77.84-33.25,74.43-51.45,115.18-78.66,115.85-29.71.73-51.32-46.76-82.76-115.85C-9.49-14.43-3.78-29.74,1.29-36.82Z"/>
    <circle cx="99.11" cy="86.5" r="24.68"/>
    <circle class="cls-4" cx="113.24" cy="94.41" r="5.19"/>
    <circle class="cls-4" cx="92.06" cy="81.12" r="8.11"/>
    <rect class="cls-3" x="101.11" y="23.61" width="4.02" height="5.36" rx="2.01" ry="2.01"/>
    <path class="cls-2" d="M83.59,34.2c1.47-7.37,8-12.73,15.52-12.73s14.05,5.36,15.52,12.73"/>
  </g>
</svg>