<?xml version="1.0" encoding="UTF-8"?>
<svg id="Layer_2" data-name="Layer 2" xmlns="http://www.w3.org/2000/svg" viewBox="0 0 390 844">
  <defs>
    <style>
      .cls-1 {
        fill: #feefe0;
      }
    </style>
  </defs>
  <path class="cls-1" d="M64.5,17.59c5.06-3.37,12.64-9.44,18.35-19.31,10.72-18.5,11.28-43.96-.74-61.22-16.51-23.7-54.6-31.32-86.29-11.8-21.22-7.94-44.89,1.38-54.58,20.65-8.88,17.67-4.15,39.95,11.8,53.1-22.86,17.54-24.42,50.6-6.64,68.59,16.41,16.6,46.14,17.18,64.91-1.48,17.53,9.31,38.5,5.05,49.42-8.85,8.52-10.85,9.9-26.28,3.77-39.7Z"/>
  <path class="cls-1" d="M68.86,165.74c-8.24-18.63-30.02-26.98-47.77-19.29-18.68,8.08-27.26,31.45-17.46,50.53-27.07,4.62-43.64,31.82-36.75,56.04,6.59,23.18,32.96,37.61,57.88,29.4,2.25,19.15,18.57,33.35,36.75,33.07,19.74-.3,36.48-17.58,35.83-38.59,14.66,1.52,28.74-4.93,35.83-16.54,9.11-14.91,5.36-36.13-10.11-48.69,9.48-14.88,6.97-34.36-5.51-45.94-13.32-12.35-34.63-12.58-48.69,0Z"/>
  <path class="cls-1" d="M177.55,426.27c-2.62-20.86-16.71-38.36-36.02-44.72-22.02-7.25-46.98,1.24-60.87,21.12-1.48-.42-27.2-7.2-47.2,11.18-20.55,18.87-15.17,46-14.91,47.2-23.45,32.64-17.1,76.88,11.18,99.37,23.94,19.04,59.91,19.55,86.95,0,13.05,11.41,31.74,13.86,47.2,6.21,15.75-7.8,25.17-24.63,23.6-42.23,27.06-3.22,46.57-28.02,43.48-54.69-3.03-26.14-26.8-45.66-53.41-43.44Z"/>
  <path class="cls-1" d="M308.08,9.3c16.74-27.68,53.51-36.2,80.55-18.89,26.84,17.18,34.62,53.76,16.91,80.55,14.78,10.61,20.76,29.5,14.92,45.74-6.55,18.23-26.63,29.31-46.74,24.86-3.63,20.15-19.83,35.18-38.78,36.79-15.54,1.32-30.87-6.56-39.78-20.24-1.5-.55-26.4-10.15-31.82-36.45-4.72-22.91,9.18-39.9,10.94-41.97-10.47-14.47-11.63-33.55-2.98-48.52,11.79-20.41,35.23-21.81,36.79-21.88Z"/>
  <path class="cls-1" d="M48.54,740.23c-8.24-18.63-30.02-26.98-47.77-19.29-18.68,8.08-27.26,31.45-17.46,50.53-27.07,4.62-43.64,31.82-36.75,56.04,6.59,23.18,32.96,37.61,57.88,29.4,2.25,19.15,18.57,33.35,36.75,33.07,19.74-.3,36.48-17.58,35.83-38.59,14.66,1.52,28.74-4.93,35.83-16.54,9.11-14.91,5.36-36.13-10.11-48.69,9.48-14.88,6.97-34.36-5.51-45.94-13.32-12.35-34.63-12.58-48.69,0Z"/>
  <path class="cls-1" d="M342.93,331.85c4.04-2.69,10.1-7.55,14.67-15.43,8.57-14.79,9.02-35.13-.59-48.92-13.19-18.94-43.63-25.03-68.96-9.43-16.96-6.34-35.87,1.1-43.62,16.5-7.1,14.12-3.31,31.93,9.43,42.44-18.27,14.02-19.51,40.44-5.3,54.82,13.11,13.27,36.87,13.73,51.87-1.18,14.01,7.44,30.77,4.03,39.49-7.07,6.81-8.67,7.91-21,3.01-31.72Z"/>
  <path class="cls-1" d="M379.57,725.63c14.93,28.7,3.06,64.53-25.79,78.61-28.64,13.98-63.93,1.58-77.58-27.49-16.75,7.09-36,2.37-46.82-11.07-12.15-15.08-11.17-37.99,3.1-52.85-15.31-13.59-19.71-35.25-11.23-52.27,6.96-13.96,21.66-22.95,37.98-23.43,1.25-1,22.41-17.26,47.68-8.2,22.02,7.89,29.29,28.61,30.14,31.19,17.8-1.41,34.7,7.53,42.98,22.71,11.29,20.69.29,41.43-.47,42.8Z"/>
</svg>