<?xml version="1.0" encoding="UTF-8"?>
<svg id="Layer_1" data-name="Layer 1" xmlns="http://www.w3.org/2000/svg" viewBox="0 0 80 80">
  <defs>
    <style>
      .cls-1 {
        fill: #b21f2c;
      }
    </style>
  </defs>
  <path class="cls-1" d="M49.39,49.52v-9.07c0-.36.25-.68.61-.75,10.04-1.9,20.81,5.43,21.82,15.82,2.53,26.02-35.98,29.5-37.69,2.7-.77-12.04,1.11-25.54.03-37.38-.83-9.11-13.44-8.78-14.37-.29-.72,6.6,4.28,9.95,10.21,9.25.45-.05.86.3.86.76v8.94c0,.37-.26.69-.62.75-15.83,2.87-27.7-13.96-19.47-28.11C19.31-2.57,43.64,1.85,45.71,19.14c1.45,12.1-.87,26.69.07,39.08.86,11.32,15.88,9.88,14.34-1.78-.37-2.79-3.51-6.15-6.4-6.15h-3.57c-.42,0-.77-.34-.77-.77Z"/>
</svg>