<?xml version="1.0" encoding="UTF-8"?>
<svg id="Layer_2" data-name="Layer 2" xmlns="http://www.w3.org/2000/svg" viewBox="0 0 100 100">
  <defs>
    <style>
      .cls-1 {
        fill: #b4202c;
      }

      .cls-2 {
        fill: #ee3351;
      }
    </style>
  </defs>
  <path class="cls-2" d="M53.12,18.81c-.1-.12-1.17-1.38-2.89-1.24-1.52.12-2.36,1.25-2.48,1.41-11.26,11.66-22.53,23.32-33.79,34.98v36.46c0,.87.2,2.75,1.55,4.06,1.45,1.4,3.57,1.44,5.31,1.47,2.08.04,3.81.07,5.17-1.2,1.66-1.56,1.55-3.95,1.52-4.48-.26-6.82-.52-13.64-.78-20.46,0-2.72,2.21-4.93,4.93-4.93h9.88c2.72,0,4.93,2.21,4.93,4.93v19.12c-.04,1.75.22,4.13,1.79,5.92,2.4,2.72,5.97,1.94,14.77,1.82,13.27-.18,18.26,1.43,21.11-2.2,1.14-1.45,1.51-3,1.51-4.06v-36.46c-10.84-11.72-21.69-23.44-32.53-35.15ZM37.64,54.24c0,2.08-1.68,3.76-3.76,3.76h-6.41c-2.08,0-3.76-1.68-3.76-3.76v-7.89c0-2.08,1.68-3.76,3.76-3.76h6.41c2.08,0,3.76,1.68,3.76,3.76v7.89ZM56.56,54.24c0,2.08-1.68,3.76-3.76,3.76h-6.41c-2.08,0-3.76-1.68-3.76-3.76v-7.89c0-2.08,1.68-3.76,3.76-3.76h6.41c2.08,0,3.76,1.68,3.76,3.76v7.89ZM75.47,54.24c0,2.08-1.68,3.76-3.76,3.76h-6.41c-2.08,0-3.76-1.68-3.76-3.76v-7.89c0-2.08,1.68-3.76,3.76-3.76h6.41c2.08,0,3.76,1.68,3.76,3.76v7.89Z"/>
  <path class="cls-1" d="M94.54,45.99c-14.29-14.18-28.58-28.36-42.86-42.53-.28-.13-.83-.34-1.54-.33-.68,0-1.2.2-1.49.33-14.65,14.18-29.29,28.36-43.94,42.53-2.77,2.51-2.8,6.78-.41,9.16,2.5,2.48,7.02,2.28,9.42-.8,11.34-11.79,22.68-23.58,34.02-35.37.61-.59,1.45-1.17,2.48-1.22,1.4-.07,2.53.85,2.89,1.24,10.88,11.78,21.75,23.57,32.63,35.35,2.67,3.75,7.63,4.04,10,1.86,2.4-2.21,2.46-7.3-1.2-10.23Z"/>
  <path class="cls-2" d="M84.45,35.98c-.03-.84-.06-2.11-.06-3.67,0-2.3.06-2.72.06-4.82,0-3.75-.19-7.49-.05-11.24.12-3.19.14-4.95-1.33-5.81-.15-.09-.31-.15-.64-.28-.46-.18-1.9-.7-5.36-.66-3.74.04-4.94.67-5.33.89-.16.09-.27.15-.38.24,0,0-.16.12-.32.36-.2.3-.32,4.99-.27,11.4"/>
</svg>