<?xml version="1.0" encoding="UTF-8"?>
<svg id="Layer_2" data-name="Layer 2" xmlns="http://www.w3.org/2000/svg" xmlns:xlink="http://www.w3.org/1999/xlink" viewBox="0 0 200 200">
  <defs>
    <style>
      .cls-1, .cls-2 {
        fill: none;
      }

      .cls-3 {
        fill: #570b21;
      }

      .cls-2 {
        stroke: #570b21;
        stroke-linecap: round;
        stroke-miterlimit: 10;
        stroke-width: 3px;
      }

      .cls-4 {
        fill: url(#linear-gradient);
      }

      .cls-5 {
        fill: #d84b77;
      }

      .cls-6 {
        clip-path: url(#clippath);
      }
    </style>
    <clipPath id="clippath">
      <rect class="cls-1" width="200" height="200"/>
    </clipPath>
    <linearGradient id="linear-gradient" x1="-23.78" y1="146.16" x2="225.03" y2="146.16" gradientUnits="userSpaceOnUse">
      <stop offset="0" stop-color="#c01f3d"/>
      <stop offset="1" stop-color="#7f0031"/>
    </linearGradient>
  </defs>
  <g class="cls-6">
    <rect class="cls-5" width="200" height="200"/>
    <path class="cls-4" d="M218.87,200c-19.41,42.88-80.67,45.57-118.82,47.25-37.27,1.64-89.33,3.93-112.34-31.1-24.83-37.81-5.32-103.14,19.59-108.95,10.06-2.35,20.92,5.03,30.08,13.98-3.39-6.02-14.44-27.32-6.11-46.84,11.34-26.58,49.54-28.59,68.78-29.6,16.12-.85,32.9-1.74,44.57,10.31,11.35,11.72,10.92,28.48,10.56,33.93,9.1.35,21.76,2.33,33.96,9.9,32.29,20.05,44.38,68.77,29.74,101.11Z"/>
    <path class="cls-3" d="M138.97,95.93c-1.89-1.5-4.99-2.31-7.77-1.24-2.68,1.04-4.35,3.55-4.2,6.34,1.45-2.44,1.17-5.4-.68-7.37-2.4-2.57-6.38-2.32-8.62-1.52-3.33,1.19-4.58,4.23-5.07,5.44-3.86,9.42,8.87,22.39,10.12,23.64,2.14-.82,18.19-7.17,18.81-17.53.1-1.65.33-5.44-2.59-7.77Z"/>
    <path class="cls-3" d="M76.81,91.75c-2.4.27-5.16,1.89-6.37,4.62-1.16,2.63-.57,5.59,1.52,7.45-.7-2.75-2.99-4.64-5.69-4.73-3.52-.12-6.15,2.88-7.17,5.02-1.51,3.2-.24,6.23.26,7.43,3.93,9.39,22.1,9.56,23.87,9.56.93-2.09,7.79-17.93.91-25.7-1.1-1.24-3.62-4.08-7.33-3.66Z"/>
    <path class="cls-2" d="M107.46,134.43c-1.44-2.61-4.25-4.11-7.11-3.83-3.4.33-5.94,3.1-6.4,6.07-.59,3.8,2.23,7.83,6.67,8.7-4,1.61-6,5.95-4.78,9.66,1.04,3.13,4.24,5.41,7.78,5.1,3.36-.29,6.14-2.81,6.78-6.15"/>
  </g>
</svg>