<?xml version="1.0" encoding="UTF-8"?>
<svg id="Layer_1" data-name="Layer 1" xmlns="http://www.w3.org/2000/svg" viewBox="0 0 900 472.5">
  <defs>
    <style>
      .cls-1 {
        fill: #b2182b;
      }
    </style>
  </defs>
  <path class="cls-1" d="M654.84,274.87v-22.73c0-.91.64-1.71,1.53-1.88,25.16-4.76,52.14,13.6,54.67,39.64,6.34,65.21-90.15,73.93-94.45,6.76-1.93-30.16,2.78-63.99.06-93.66-2.09-22.83-33.67-22-36.01-.72-1.81,16.54,10.72,24.94,25.59,23.17,1.14-.14,2.14.75,2.14,1.9v22.41c0,.92-.65,1.72-1.55,1.89-39.66,7.19-69.42-34.97-48.78-70.45,21.43-36.84,82.39-25.76,87.59,17.56,3.64,30.31-2.18,66.88.18,97.91,2.15,28.37,39.79,24.75,35.94-4.46-.92-7-8.8-15.41-16.05-15.41h-8.95c-1.06,0-1.92-.86-1.92-1.92Z"/>
  <path class="cls-1" d="M33.61,194.79c3.53-34.8,47.74-48.06,70.82-22.85,18.6-20.96,56.45-15.91,67.43,10.51,1.32,3.17,3.39,10.63,3.39,13.84v54.62c0,.51-.2,1-.56,1.36-.36.36-.85.56-1.36.56h-25.39c-.51,0-1-.2-1.36-.56-.36-.36-.56-.85-.56-1.36v-54.62c0-.28-2.24-4.24-2.67-4.82-5.4-7.42-16.22-7.44-21.64,0-.43.59-2.67,4.54-2.67,4.82v54.62c0,.51-.2,1-.56,1.36-.36.36-.85.56-1.36.56h-25.39c-.51,0-1-.2-1.36-.56-.36-.36-.56-.85-.56-1.36v-54.62c0-.25-1.88-3.97-2.24-4.5-4.85-7.17-15.88-7.94-21.38-1.13-1.1,1.36-3.36,5.65-3.36,7.13v53.12c0,.51-.2,1-.56,1.36-.36.36-.85.56-1.36.56h-25.39c-.51,0-1-.2-1.36-.56-.36-.36-.56-.85-.56-1.36v-56.11Z"/>
  <path class="cls-1" d="M245.68,227.4v22.64c0,.58-.26,1.12-.71,1.49l-.1.08c-.28.23-.62.38-.98.42-36.73,4.79-64.67-29.04-51.03-64.35,15.18-39.29,75.97-37.84,88.42,2.22.65,2.09,2.61,9.19,2.61,10.87v50.12c0,.51-.2,1-.56,1.36h0c-.36.36-.85.56-1.36.56h-25.39c-.51,0-1-.2-1.36-.56h0c-.36-.36-.56-.85-.56-1.36v-49.38c0-6.68-8.2-14.39-14.68-15.28-15.94-2.2-24.98,12.57-20.15,26.87,3.18,9.4,14.27,13.61,23.64,12.39,1.16-.15,2.19.72,2.19,1.89Z"/>
  <path class="cls-1" d="M813.55,250.05c67.35-6.54,70.63,91.05,8.02,93.37-60.96,2.26-66.35-87.71-8.02-93.37ZM816.53,276.99c-24.88,3.55-16.53,47.26,8.95,38.15,19.63-7.02,14.76-41.52-8.95-38.15Z"/>
  <path class="cls-1" d="M477.57,252.82h-26.14c-.51,0-1-.2-1.36-.56h0c-.36-.36-.56-.85-.56-1.36v-53.87c0-2.26,2.78-10.94,3.86-13.37,13.87-31.46,62.51-33.12,78.45-2.97,1.29,2.45,5.38,13.34,5.38,15.59v54.62c0,.51-.2,1-.56,1.36h0c-.36.36-.85.56-1.36.56h-26.14c-.51,0-1-.2-1.36-.56h0c-.36-.36-.56-.85-.56-1.36v-50.87c0-.25-.92-4.3-1.11-4.88-3.65-11.44-19.95-12.23-25-1.74-.34.71-1.62,3.97-1.62,4.37v53.12c0,1.06-.86,1.92-1.92,1.92Z"/>
  <path class="cls-1" d="M382.07,125.95v124.96c0,.51-.2,1-.56,1.36h0c-.36.36-.85.56-1.36.56h-26.89c-.51,0-1-.2-1.36-.56h0c-.36-.36-.56-.85-.56-1.36v-124.96c0-1.06.86-1.92,1.92-1.92h26.89c1.06,0,1.92.86,1.92,1.92Z"/>
  <path class="cls-1" d="M331.86,125.95v124.96c0,.51-.2,1-.56,1.36h0c-.36.36-.85.56-1.36.56h-26.14c-1.06,0-1.92-.86-1.92-1.92v-124.96c0-1.06.86-1.92,1.92-1.92h26.14c1.06,0,1.92.86,1.92,1.92Z"/>
  <rect class="cls-1" x="401.55" y="161.47" width="29.98" height="90.61" rx="1.92" ry="1.92"/>
  <rect class="cls-1" x="726.78" y="252.08" width="29.98" height="88.36" rx="1.92" ry="1.92"/>
  <path class="cls-1" d="M414.11,121.23c24.63-3.38,26.55,31.88,3.44,32.69-21.77.76-23.88-29.89-3.44-32.69Z"/>
  <path class="cls-1" d="M740.88,211.81c23.12-1.64,24.11,31,2.76,32.79-22.64,1.9-25.54-31.18-2.76-32.79Z"/>
</svg>