<?xml version="1.0" encoding="UTF-8"?>
<svg id="Layer_4" data-name="Layer 4" xmlns="http://www.w3.org/2000/svg" xmlns:xlink="http://www.w3.org/1999/xlink" viewBox="0 0 200 200">
  <defs>
    <style>
      .cls-1 {
        fill: none;
      }

      .cls-2 {
        fill: #14123d;
      }

      .cls-3 {
        fill: #8eb0dd;
      }

      .cls-4 {
        fill: url(#linear-gradient);
      }

      .cls-5 {
        fill: #322c72;
      }

      .cls-6 {
        clip-path: url(#clippath);
      }
    </style>
    <clipPath id="clippath">
      <rect class="cls-1" width="200" height="200"/>
    </clipPath>
    <linearGradient id="linear-gradient" x1="-22.49" y1="121.37" x2="188.19" y2="121.37" gradientUnits="userSpaceOnUse">
      <stop offset=".03" stop-color="#bda8d1"/>
      <stop offset="1" stop-color="#5f4da0"/>
    </linearGradient>
  </defs>
  <g class="cls-6">
    <rect class="cls-3" width="200" height="200"/>
    <path class="cls-4" d="M174.27,203.29c-1.93,10.09-30.65,13.51-62.19,14.47-57.4,1.75-134.07-4.35-134.56-17.76-.55-14.94,85.6-24.01,86.09-49.7.32-16.69-35.84-27.89-33.34-50.3.67-6.03,3.34-5.68,7.1-17.04,7.11-21.49.82-32.55,6.1-37.69,4.87-4.75,18.83-3.71,58.12,20.63,19.01-31.79,43.06-45.82,54.96-39.87,11.35,5.68,10.72,29.12,10.53,33.84,21.16,31.08,24.83,52.21,17.99,66.51-10.23,21.39-41.63,22.67-42.67,38.45-1.12,16.9,34.15,26.64,31.89,38.45Z"/>
    <circle class="cls-5" cx="100.22" cy="91.91" r="9.81"/>
    <circle class="cls-5" cx="137.86" cy="91.57" r="5.07"/>
    <path class="cls-5" d="M157.42,134.48c-2.24,8.2-23.44,8.55-31.47,8.68-8,.13-25.13.41-29-7.82-.68-1.44-1.8-4.95-.09-6.73,1.38-1.44,4.31-1.44,7.27.03-2.13-2.69-2.43-5.84-1.04-7.54.05-.07,1.31-1.44,2.82-1.45,1.76,0,3.59,1.52,3.59,1.52,0,0,.06-.04.06-.04.08-.05,1.05-3.88,1.61-5.01.83-1.67,3.21-2.43,4.99-2.33,2.5.14,4.75,2.05,5.58,4.77.32-2.17,2.1-3.81,4.21-3.96,2.26-.16,4.37,1.46,4.82,3.77.57-2.96,3.41-4.66,5.75-4.03,1.82.49,3.22,2.36,3.27,4.58,1.36-1.43,3.31-1.83,4.59-1.14,1.69.92,2.4,3.89.6,6.17,1.24-.66,3.28-1.47,5.48-.97,4.67,1.05,8.06,7.46,6.95,11.51Z"/>
    <path class="cls-2" d="M140.95,140.19c-1.09,2.47-5.07,2.61-12.72,2.9-6.12.23-9.2.3-10.56-1.62-2.15-3.03-.24-9.9,3.63-10.58,2.39-.42,5.31,1.56,6.94,4.89,1.15-3.02,3.53-5.18,6.03-5.29,4.59-.2,8.09,6.53,6.69,9.7Z"/>
  </g>
</svg>