<?xml version="1.0" encoding="UTF-8"?>
<svg id="Layer_1" data-name="Layer 1" xmlns="http://www.w3.org/2000/svg" viewBox="0 0 17.27 15.06">
  <defs>
    <style>
      .cls-1 {
        fill: #3e6bbf;
      }
    </style>
  </defs>
  <path class="cls-1" d="M8.92.06c3.56,0,6.44,2.81,6.44,6.28v.77c0,2.21-1.84,4.01-4.11,4.01h-4.66c-2.27,0-4.11-1.8-4.11-4.01v-.77C2.47,2.87,5.36.06,8.92.06Z"/>
  <path class="cls-1" d="M6.22,6.02h5.4c2.07,0,3.75,1.63,3.75,3.65v3.56H2.47v-3.56c0-2.01,1.68-3.65,3.75-3.65Z"/>
  <path class="cls-1" d="M15.63,2.64c.83,0,1.5.66,1.5,1.46v9.5c0,.81-.67,1.46-1.5,1.46h-1.5V4.1c0-.81.67-1.46,1.5-1.46h0Z"/>
  <path class="cls-1" d="M1.64,2.64c.83,0,1.5.66,1.5,1.46v10.96h-1.5c-.83,0-1.5-.65-1.5-1.46V4.1c0-.81.67-1.46,1.5-1.46Z"/>
</svg>