<?xml version="1.0" encoding="UTF-8"?>
<svg id="Layer_9" data-name="Layer 9" xmlns="http://www.w3.org/2000/svg" xmlns:xlink="http://www.w3.org/1999/xlink" viewBox="0 0 800 505.08">
  <defs>
    <style>
      .cls-1 {
        stroke: #fff;
        stroke-dasharray: 12;
        stroke-miterlimit: 9;
        stroke-width: 7px;
      }

      .cls-1, .cls-2, .cls-3, .cls-4 {
        fill: none;
      }

      .cls-5 {
        clip-path: url(#clippath-1);
      }

      .cls-6 {
        fill: #282828;
      }

      .cls-3 {
        stroke: #b31f2c;
      }

      .cls-3, .cls-4 {
        stroke-linecap: round;
        stroke-miterlimit: 10;
        stroke-width: 20px;
      }

      .cls-7 {
        fill: #b31f2c;
      }

      .cls-4 {
        stroke: #231f20;
      }

      .cls-8 {
        clip-path: url(#clippath);
      }
    </style>
    <clipPath id="clippath">
      <rect class="cls-2" x="-552.02" y="163.29" width="163.69" height="184.01"/>
    </clipPath>
    <clipPath id="clippath-1">
      <rect class="cls-2" x="-659.76" y="43.45" width="290.99" height="451.66"/>
    </clipPath>
  </defs>
  <g class="cls-8">
    <g class="cls-5">
      <path class="cls-6" d="M11.44,465.29c-70.44-42.81-245.8-136.72-490.3-139.16-250.31-2.5-430.95,92.3-501.64,134.3-7.16-53.55-14.32-107.11-21.48-160.66,79.96-44.41,266.31-134.18,520.96-133.47,251.19.7,435,89.06,514.97,133.47-7.5,55.17-15,110.35-22.5,165.52Z"/>
      <path class="cls-7" d="M.02,418.7c-71.09-38.76-244.14-121.36-482.46-120.31-235.28,1.03-405.74,83.03-476.71,122.09-6.42-33.45-12.85-66.9-19.27-100.35,75.94-40.65,255.93-124.51,502.48-123.48,236.55.99,409.96,79.6,486.3,119.68C6.91,350.45,3.47,384.58.02,418.7Z"/>
      <path class="cls-1" d="M-986.98,309.79c80.51-43.33,259.97-126.31,503.56-126.85,246.34-.55,427.8,83.5,508.35,126.85"/>
      <path class="cls-1" d="M-969.93,438.95c71.62-41.72,249.68-132.87,495.08-130.39C-240.93,310.93-71.31,397.09.53,438.95"/>
    </g>
  </g>
  <path class="cls-4" d="M195.16,93.72c45.41-17.27,121.33-39.61,216.99-37.49,82.69,1.83,148.9,21.23,191.62,37.49"/>
  <path d="M276.97,296.72h0c14.79,0,26.8,12.01,26.8,26.8v3.28c0,9.44-7.67,17.11-17.11,17.11h-19.39c-9.44,0-17.11-7.67-17.11-17.11v-3.28c0-14.79,12.01-26.8,26.8-26.8Z"/>
  <path d="M265.76,322.19h22.44c8.6,0,15.59,6.98,15.59,15.59v15.19h-53.61v-15.19c0-8.6,6.98-15.59,15.59-15.59Z"/>
  <path d="M304.9,307.73h0c3.45,0,6.24,2.8,6.24,6.24v40.55c0,3.45-2.8,6.24-6.24,6.24h-6.24v-46.79c0-3.45,2.8-6.24,6.24-6.24Z"/>
  <path d="M246.69,307.73h0c3.45,0,6.24,2.8,6.24,6.24v46.79h-6.24c-3.45,0-6.24-2.8-6.24-6.24v-40.55c0-3.45,2.8-6.24,6.24-6.24Z"/>
  <path d="M360.07,296.72h0c14.79,0,26.8,12.01,26.8,26.8v3.28c0,9.44-7.67,17.11-17.11,17.11h-19.39c-9.44,0-17.11-7.67-17.11-17.11v-3.28c0-14.79,12.01-26.8,26.8-26.8Z"/>
  <path d="M348.85,322.19h22.44c8.6,0,15.59,6.98,15.59,15.59v15.19h-53.61v-15.19c0-8.6,6.98-15.59,15.59-15.59Z"/>
  <path d="M388,307.73h0c3.45,0,6.24,2.8,6.24,6.24v40.55c0,3.45-2.8,6.24-6.24,6.24h-6.24v-46.79c0-3.45,2.8-6.24,6.24-6.24Z"/>
  <path d="M329.79,307.73h0c3.45,0,6.24,2.8,6.24,6.24v46.79h-6.24c-3.45,0-6.24-2.8-6.24-6.24v-40.55c0-3.45,2.8-6.24,6.24-6.24Z"/>
  <path d="M443.17,296.72h0c14.79,0,26.8,12.01,26.8,26.8v3.28c0,9.44-7.67,17.11-17.11,17.11h-19.39c-9.44,0-17.11-7.67-17.11-17.11v-3.28c0-14.79,12.01-26.8,26.8-26.8Z"/>
  <path d="M431.95,322.19h22.44c8.6,0,15.59,6.98,15.59,15.59v15.19h-53.61v-15.19c0-8.6,6.98-15.59,15.59-15.59Z"/>
  <path d="M471.09,307.73h0c3.45,0,6.24,2.8,6.24,6.24v40.55c0,3.45-2.8,6.24-6.24,6.24h-6.24v-46.79c0-3.45,2.8-6.24,6.24-6.24Z"/>
  <path d="M412.88,307.73h0c3.45,0,6.24,2.8,6.24,6.24v46.79h-6.24c-3.45,0-6.24-2.8-6.24-6.24v-40.55c0-3.45,2.8-6.24,6.24-6.24Z"/>
  <path d="M526.26,296.72h0c14.79,0,26.8,12.01,26.8,26.8v3.28c0,9.44-7.67,17.11-17.11,17.11h-19.39c-9.44,0-17.11-7.67-17.11-17.11v-3.28c0-14.79,12.01-26.8,26.8-26.8Z"/>
  <path d="M515.04,322.19h22.44c8.6,0,15.59,6.98,15.59,15.59v15.19h-53.61v-15.19c0-8.6,6.98-15.59,15.59-15.59Z"/>
  <path d="M554.19,307.73h0c3.45,0,6.24,2.8,6.24,6.24v40.55c0,3.45-2.8,6.24-6.24,6.24h-6.24v-46.79c0-3.45,2.8-6.24,6.24-6.24Z"/>
  <path d="M495.98,307.73h0c3.45,0,6.24,2.8,6.24,6.24v46.79h-6.24c-3.45,0-6.24-2.8-6.24-6.24v-40.55c0-3.45,2.8-6.24,6.24-6.24Z"/>
  <path d="M276.97,367.68h0c14.79,0,26.8,12.01,26.8,26.8v3.28c0,9.44-7.67,17.11-17.11,17.11h-19.39c-9.44,0-17.11-7.67-17.11-17.11v-3.28c0-14.79,12.01-26.8,26.8-26.8Z"/>
  <path d="M265.76,393.16h22.44c8.6,0,15.59,6.98,15.59,15.59v15.19h-53.61v-15.19c0-8.6,6.98-15.59,15.59-15.59Z"/>
  <path d="M304.9,378.7h0c3.45,0,6.24,2.8,6.24,6.24v40.55c0,3.45-2.8,6.24-6.24,6.24h-6.24v-46.79c0-3.45,2.8-6.24,6.24-6.24Z"/>
  <path d="M246.69,378.7h0c3.45,0,6.24,2.8,6.24,6.24v46.79h-6.24c-3.45,0-6.24-2.8-6.24-6.24v-40.55c0-3.45,2.8-6.24,6.24-6.24Z"/>
  <path d="M360.07,367.68h0c14.79,0,26.8,12.01,26.8,26.8v3.28c0,9.44-7.67,17.11-17.11,17.11h-19.39c-9.44,0-17.11-7.67-17.11-17.11v-3.28c0-14.79,12.01-26.8,26.8-26.8Z"/>
  <path d="M348.85,393.16h22.44c8.6,0,15.59,6.98,15.59,15.59v15.19h-53.61v-15.19c0-8.6,6.98-15.59,15.59-15.59Z"/>
  <path d="M388,378.7h0c3.45,0,6.24,2.8,6.24,6.24v40.55c0,3.45-2.8,6.24-6.24,6.24h-6.24v-46.79c0-3.45,2.8-6.24,6.24-6.24Z"/>
  <path d="M329.79,378.7h0c3.45,0,6.24,2.8,6.24,6.24v46.79h-6.24c-3.45,0-6.24-2.8-6.24-6.24v-40.55c0-3.45,2.8-6.24,6.24-6.24Z"/>
  <path d="M443.17,367.68h0c14.79,0,26.8,12.01,26.8,26.8v3.28c0,9.44-7.67,17.11-17.11,17.11h-19.39c-9.44,0-17.11-7.67-17.11-17.11v-3.28c0-14.79,12.01-26.8,26.8-26.8Z"/>
  <path d="M431.95,393.16h22.44c8.6,0,15.59,6.98,15.59,15.59v15.19h-53.61v-15.19c0-8.6,6.98-15.59,15.59-15.59Z"/>
  <path d="M471.09,378.7h0c3.45,0,6.24,2.8,6.24,6.24v40.55c0,3.45-2.8,6.24-6.24,6.24h-6.24v-46.79c0-3.45,2.8-6.24,6.24-6.24Z"/>
  <path d="M412.88,378.7h0c3.45,0,6.24,2.8,6.24,6.24v46.79h-6.24c-3.45,0-6.24-2.8-6.24-6.24v-40.55c0-3.45,2.8-6.24,6.24-6.24Z"/>
  <path d="M526.26,367.68h0c14.79,0,26.8,12.01,26.8,26.8v3.28c0,9.44-7.67,17.11-17.11,17.11h-19.39c-9.44,0-17.11-7.67-17.11-17.11v-3.28c0-14.79,12.01-26.8,26.8-26.8Z"/>
  <path d="M515.04,393.16h22.44c8.6,0,15.59,6.98,15.59,15.59v15.19h-53.61v-15.19c0-8.6,6.98-15.59,15.59-15.59Z"/>
  <path d="M554.19,378.7h0c3.45,0,6.24,2.8,6.24,6.24v40.55c0,3.45-2.8,6.24-6.24,6.24h-6.24v-46.79c0-3.45,2.8-6.24,6.24-6.24Z"/>
  <path d="M495.98,378.7h0c3.45,0,6.24,2.8,6.24,6.24v46.79h-6.24c-3.45,0-6.24-2.8-6.24-6.24v-40.55c0-3.45,2.8-6.24,6.24-6.24Z"/>
  <path d="M275.02,154.79h0c14.79,0,26.8,12.01,26.8,26.8v3.28c0,9.44-7.67,17.11-17.11,17.11h-19.39c-9.44,0-17.11-7.67-17.11-17.11v-3.28c0-14.79,12.01-26.8,26.8-26.8Z"/>
  <path d="M263.8,180.26h22.44c8.6,0,15.59,6.98,15.59,15.59v15.19h-53.61v-15.19c0-8.6,6.98-15.59,15.59-15.59Z"/>
  <path d="M302.94,165.8h0c3.45,0,6.24,2.8,6.24,6.24v40.55c0,3.45-2.8,6.24-6.24,6.24h-6.24v-46.79c0-3.45,2.8-6.24,6.24-6.24Z"/>
  <path d="M244.73,165.8h0c3.45,0,6.24,2.8,6.24,6.24v46.79h-6.24c-3.45,0-6.24-2.8-6.24-6.24v-40.55c0-3.45,2.8-6.24,6.24-6.24Z"/>
  <path d="M358.11,154.79h0c14.79,0,26.8,12.01,26.8,26.8v3.28c0,9.44-7.67,17.11-17.11,17.11h-19.39c-9.44,0-17.11-7.67-17.11-17.11v-3.28c0-14.79,12.01-26.8,26.8-26.8Z"/>
  <path d="M346.89,180.26h22.44c8.6,0,15.59,6.98,15.59,15.59v15.19h-53.61v-15.19c0-8.6,6.98-15.59,15.59-15.59Z"/>
  <path d="M386.04,165.8h0c3.45,0,6.24,2.8,6.24,6.24v40.55c0,3.45-2.8,6.24-6.24,6.24h-6.24v-46.79c0-3.45,2.8-6.24,6.24-6.24Z"/>
  <path d="M327.83,165.8h0c3.45,0,6.24,2.8,6.24,6.24v46.79h-6.24c-3.45,0-6.24-2.8-6.24-6.24v-40.55c0-3.45,2.8-6.24,6.24-6.24Z"/>
  <path d="M441.21,154.79h0c14.79,0,26.8,12.01,26.8,26.8v3.28c0,9.44-7.67,17.11-17.11,17.11h-19.39c-9.44,0-17.11-7.67-17.11-17.11v-3.28c0-14.79,12.01-26.8,26.8-26.8Z"/>
  <path d="M429.99,180.26h22.44c8.6,0,15.59,6.98,15.59,15.59v15.19h-53.61v-15.19c0-8.6,6.98-15.59,15.59-15.59Z"/>
  <path d="M469.14,165.8h0c3.45,0,6.24,2.8,6.24,6.24v40.55c0,3.45-2.8,6.24-6.24,6.24h-6.24v-46.79c0-3.45,2.8-6.24,6.24-6.24Z"/>
  <path d="M410.93,165.8h0c3.45,0,6.24,2.8,6.24,6.24v46.79h-6.24c-3.45,0-6.24-2.8-6.24-6.24v-40.55c0-3.45,2.8-6.24,6.24-6.24Z"/>
  <path d="M524.3,154.79h0c14.79,0,26.8,12.01,26.8,26.8v3.28c0,9.44-7.67,17.11-17.11,17.11h-19.39c-9.44,0-17.11-7.67-17.11-17.11v-3.28c0-14.79,12.01-26.8,26.8-26.8Z"/>
  <path d="M513.08,180.26h22.44c8.6,0,15.59,6.98,15.59,15.59v15.19h-53.61v-15.19c0-8.6,6.98-15.59,15.59-15.59Z"/>
  <path d="M552.23,165.8h0c3.45,0,6.24,2.8,6.24,6.24v40.55c0,3.45-2.8,6.24-6.24,6.24h-6.24v-46.79c0-3.45,2.8-6.24,6.24-6.24Z"/>
  <path d="M494.02,165.8h0c3.45,0,6.24,2.8,6.24,6.24v46.79h-6.24c-3.45,0-6.24-2.8-6.24-6.24v-40.55c0-3.45,2.8-6.24,6.24-6.24Z"/>
  <path d="M275.02,225.75h0c14.79,0,26.8,12.01,26.8,26.8v3.28c0,9.44-7.67,17.11-17.11,17.11h-19.39c-9.44,0-17.11-7.67-17.11-17.11v-3.28c0-14.79,12.01-26.8,26.8-26.8Z"/>
  <path d="M263.8,251.23h22.44c8.6,0,15.59,6.98,15.59,15.59v15.19h-53.61v-15.19c0-8.6,6.98-15.59,15.59-15.59Z"/>
  <path d="M302.94,236.77h0c3.45,0,6.24,2.8,6.24,6.24v40.55c0,3.45-2.8,6.24-6.24,6.24h-6.24v-46.79c0-3.45,2.8-6.24,6.24-6.24Z"/>
  <path d="M244.73,236.77h0c3.45,0,6.24,2.8,6.24,6.24v46.79h-6.24c-3.45,0-6.24-2.8-6.24-6.24v-40.55c0-3.45,2.8-6.24,6.24-6.24Z"/>
  <path class="cls-7" d="M358.11,225.75h0c14.79,0,26.8,12.01,26.8,26.8v3.28c0,9.44-7.67,17.11-17.11,17.11h-19.39c-9.44,0-17.11-7.67-17.11-17.11v-3.28c0-14.79,12.01-26.8,26.8-26.8Z"/>
  <path class="cls-7" d="M346.89,251.23h22.44c8.6,0,15.59,6.98,15.59,15.59v15.19h-53.61v-15.19c0-8.6,6.98-15.59,15.59-15.59Z"/>
  <path class="cls-7" d="M386.04,236.77h0c3.45,0,6.24,2.8,6.24,6.24v40.55c0,3.45-2.8,6.24-6.24,6.24h-6.24v-46.79c0-3.45,2.8-6.24,6.24-6.24Z"/>
  <path class="cls-7" d="M327.83,236.77h0c3.45,0,6.24,2.8,6.24,6.24v46.79h-6.24c-3.45,0-6.24-2.8-6.24-6.24v-40.55c0-3.45,2.8-6.24,6.24-6.24Z"/>
  <path class="cls-7" d="M441.21,225.75h0c14.79,0,26.8,12.01,26.8,26.8v3.28c0,9.44-7.67,17.11-17.11,17.11h-19.39c-9.44,0-17.11-7.67-17.11-17.11v-3.28c0-14.79,12.01-26.8,26.8-26.8Z"/>
  <path class="cls-7" d="M429.99,251.23h22.44c8.6,0,15.59,6.98,15.59,15.59v15.19h-53.61v-15.19c0-8.6,6.98-15.59,15.59-15.59Z"/>
  <path class="cls-7" d="M469.14,236.77h0c3.45,0,6.24,2.8,6.24,6.24v40.55c0,3.45-2.8,6.24-6.24,6.24h-6.24v-46.79c0-3.45,2.8-6.24,6.24-6.24Z"/>
  <path class="cls-7" d="M410.93,236.77h0c3.45,0,6.24,2.8,6.24,6.24v46.79h-6.24c-3.45,0-6.24-2.8-6.24-6.24v-40.55c0-3.45,2.8-6.24,6.24-6.24Z"/>
  <path d="M524.3,225.75h0c14.79,0,26.8,12.01,26.8,26.8v3.28c0,9.44-7.67,17.11-17.11,17.11h-19.39c-9.44,0-17.11-7.67-17.11-17.11v-3.28c0-14.79,12.01-26.8,26.8-26.8Z"/>
  <path d="M513.08,251.23h22.44c8.6,0,15.59,6.98,15.59,15.59v15.19h-53.61v-15.19c0-8.6,6.98-15.59,15.59-15.59Z"/>
  <path d="M552.23,236.77h0c3.45,0,6.24,2.8,6.24,6.24v40.55c0,3.45-2.8,6.24-6.24,6.24h-6.24v-46.79c0-3.45,2.8-6.24,6.24-6.24Z"/>
  <path d="M494.02,236.77h0c3.45,0,6.24,2.8,6.24,6.24v46.79h-6.24c-3.45,0-6.24-2.8-6.24-6.24v-40.55c0-3.45,2.8-6.24,6.24-6.24Z"/>
  <circle class="cls-3" cx="403.75" cy="275.42" r="131.96"/>
  <line class="cls-3" x1="490.92" y1="374.48" x2="604.84" y2="488.4"/>
</svg>