<?xml version="1.0" encoding="UTF-8"?>
<svg xmlns="http://www.w3.org/2000/svg" viewBox="0 0 800 505.08">
  <defs>
    <style>
      .cls-1 {
        fill: #010101;
      }

      .cls-2 {
        fill: none;
        stroke: #fff;
        stroke-miterlimit: 10;
        stroke-width: 3px;
      }

      .cls-3 {
        fill: #fff;
      }

      .cls-4 {
        fill: #411216;
      }

      .cls-5 {
        fill: #b31f2c;
      }
    </style>
  </defs>
  <g id="Layer_10" data-name="Layer 10">
    <path d="M451.57,99.43h-117.75c-14.49,0-26.23,11.74-26.23,26.23v275.46c0,14.49,11.74,26.23,26.23,26.23h117.75c14.49,0,26.23-11.74,26.23-26.23V125.66c0-14.49-11.74-26.23-26.23-26.23ZM467.97,385h-150.54v-244.01h150.54v244.01Z"/>
    <circle class="cls-3" cx="361.53" cy="121.03" r="2.06"/>
    <rect class="cls-3" x="371.26" y="118.96" width="42.88" height="4.13" rx="2.06" ry="2.06"/>
    <circle class="cls-3" cx="392.7" cy="405.35" r="12.3"/>
    <rect class="cls-3" x="331.41" y="196.78" width="122.58" height="122.58"/>
    <path class="cls-1" d="M373.68,205.23h4.23v4.23h-4.23v-4.23ZM386.36,205.23h4.23v4.23h-4.23v-4.23ZM390.59,205.23h4.23v4.23h-4.23v-4.23ZM403.27,205.23h4.23v4.23h-4.23v-4.23ZM407.49,205.23h4.23v4.23h-4.23v-4.23ZM373.68,209.46h4.23v4.23h-4.23v-4.23ZM386.36,209.46h4.23v4.23h-4.23v-4.23ZM407.49,209.46h4.23v4.23h-4.23v-4.23ZM382.13,213.69h4.23v4.23h-4.23v-4.23ZM390.59,213.69h4.23v4.23h-4.23v-4.23ZM394.81,213.69h4.23v4.23h-4.23v-4.23ZM403.27,213.69h4.23v4.23h-4.23v-4.23ZM373.68,217.91h4.23v4.23h-4.23v-4.23ZM394.81,217.91h4.23v4.23h-4.23v-4.23ZM399.04,217.91h4.23v4.23h-4.23v-4.23ZM377.9,222.14h4.23v4.23h-4.23v-4.23ZM386.36,222.14h4.23v4.23h-4.23v-4.23ZM390.59,222.14h4.23v4.23h-4.23v-4.23ZM399.04,222.14h4.23v4.23h-4.23v-4.23ZM403.27,222.14h4.23v4.23h-4.23v-4.23ZM377.9,226.37h4.23v4.23h-4.23v-4.23ZM382.13,226.37h4.23v4.23h-4.23v-4.23ZM390.59,226.37h4.23v4.23h-4.23v-4.23ZM394.81,226.37h4.23v4.23h-4.23v-4.23ZM373.68,230.59h4.23v4.23h-4.23v-4.23ZM382.13,230.59h4.23v4.23h-4.23v-4.23ZM390.59,230.59h4.23v4.23h-4.23v-4.23ZM399.04,230.59h4.23v4.23h-4.23v-4.23ZM407.49,230.59h4.23v4.23h-4.23v-4.23ZM373.68,234.82h4.23v4.23h-4.23v-4.23ZM377.9,234.82h4.23v4.23h-4.23v-4.23ZM382.13,234.82h4.23v4.23h-4.23v-4.23ZM386.36,234.82h4.23v4.23h-4.23v-4.23ZM390.59,234.82h4.23v4.23h-4.23v-4.23ZM403.27,234.82h4.23v4.23h-4.23v-4.23ZM407.49,234.82h4.23v4.23h-4.23v-4.23ZM339.86,239.05h4.23v4.23h-4.23v-4.23ZM348.32,239.05h4.23v4.23h-4.23v-4.23ZM352.54,239.05h4.23v4.23h-4.23v-4.23ZM361,239.05h4.23v4.23h-4.23v-4.23ZM365.22,239.05h4.23v4.23h-4.23v-4.23ZM369.45,239.05h4.23v4.23h-4.23v-4.23ZM377.9,239.05h4.23v4.23h-4.23v-4.23ZM394.81,239.05h4.23v4.23h-4.23v-4.23ZM399.04,239.05h4.23v4.23h-4.23v-4.23ZM407.49,239.05h4.23v4.23h-4.23v-4.23ZM415.95,239.05h4.23v4.23h-4.23v-4.23ZM428.63,239.05h4.23v4.23h-4.23v-4.23ZM437.08,239.05h4.23v4.23h-4.23v-4.23ZM441.31,239.05h4.23v4.23h-4.23v-4.23ZM348.32,243.28h4.23v4.23h-4.23v-4.23ZM352.54,243.28h4.23v4.23h-4.23v-4.23ZM373.68,243.28h4.23v4.23h-4.23v-4.23ZM377.9,243.28h4.23v4.23h-4.23v-4.23ZM382.13,243.28h4.23v4.23h-4.23v-4.23ZM390.59,243.28h4.23v4.23h-4.23v-4.23ZM399.04,243.28h4.23v4.23h-4.23v-4.23ZM407.49,243.28h4.23v4.23h-4.23v-4.23ZM411.72,243.28h4.23v4.23h-4.23v-4.23ZM420.17,243.28h4.23v4.23h-4.23v-4.23ZM437.08,243.28h4.23v4.23h-4.23v-4.23ZM344.09,247.5h4.23v4.23h-4.23v-4.23ZM348.32,247.5h4.23v4.23h-4.23v-4.23ZM352.54,247.5h4.23v4.23h-4.23v-4.23ZM365.22,247.5h4.23v4.23h-4.23v-4.23ZM377.9,247.5h4.23v4.23h-4.23v-4.23ZM386.36,247.5h4.23v4.23h-4.23v-4.23ZM411.72,247.5h4.23v4.23h-4.23v-4.23ZM420.17,247.5h4.23v4.23h-4.23v-4.23ZM424.4,247.5h4.23v4.23h-4.23v-4.23ZM339.86,251.73h4.23v4.23h-4.23v-4.23ZM348.32,251.73h4.23v4.23h-4.23v-4.23ZM352.54,251.73h4.23v4.23h-4.23v-4.23ZM356.77,251.73h4.23v4.23h-4.23v-4.23ZM377.9,251.73h4.23v4.23h-4.23v-4.23ZM390.59,251.73h4.23v4.23h-4.23v-4.23ZM394.81,251.73h4.23v4.23h-4.23v-4.23ZM399.04,251.73h4.23v4.23h-4.23v-4.23ZM403.27,251.73h4.23v4.23h-4.23v-4.23ZM407.49,251.73h4.23v4.23h-4.23v-4.23ZM415.95,251.73h4.23v4.23h-4.23v-4.23ZM420.17,251.73h4.23v4.23h-4.23v-4.23ZM428.63,251.73h4.23v4.23h-4.23v-4.23ZM432.86,251.73h4.23v4.23h-4.23v-4.23ZM339.86,255.96h4.23v4.23h-4.23v-4.23ZM344.09,255.96h4.23v4.23h-4.23v-4.23ZM348.32,255.96h4.23v4.23h-4.23v-4.23ZM361,255.96h4.23v4.23h-4.23v-4.23ZM365.22,255.96h4.23v4.23h-4.23v-4.23ZM369.45,255.96h4.23v4.23h-4.23v-4.23ZM373.68,255.96h4.23v4.23h-4.23v-4.23ZM377.9,255.96h4.23v4.23h-4.23v-4.23ZM382.13,255.96h4.23v4.23h-4.23v-4.23ZM386.36,255.96h4.23v4.23h-4.23v-4.23ZM390.59,255.96h4.23v4.23h-4.23v-4.23ZM394.81,255.96h4.23v4.23h-4.23v-4.23ZM399.04,255.96h4.23v4.23h-4.23v-4.23ZM403.27,255.96h4.23v4.23h-4.23v-4.23ZM407.49,255.96h4.23v4.23h-4.23v-4.23ZM411.72,255.96h4.23v4.23h-4.23v-4.23ZM415.95,255.96h4.23v4.23h-4.23v-4.23ZM420.17,255.96h4.23v4.23h-4.23v-4.23ZM424.4,255.96h4.23v4.23h-4.23v-4.23ZM432.86,255.96h4.23v4.23h-4.23v-4.23ZM437.08,255.96h4.23v4.23h-4.23v-4.23ZM441.31,255.96h4.23v4.23h-4.23v-4.23ZM352.54,260.18h4.23v4.23h-4.23v-4.23ZM361,260.18h4.23v4.23h-4.23v-4.23ZM369.45,260.18h4.23v4.23h-4.23v-4.23ZM377.9,260.18h4.23v4.23h-4.23v-4.23ZM386.36,260.18h4.23v4.23h-4.23v-4.23ZM390.59,260.18h4.23v4.23h-4.23v-4.23ZM403.27,260.18h4.23v4.23h-4.23v-4.23ZM407.49,260.18h4.23v4.23h-4.23v-4.23ZM415.95,260.18h4.23v4.23h-4.23v-4.23ZM420.17,260.18h4.23v4.23h-4.23v-4.23ZM424.4,260.18h4.23v4.23h-4.23v-4.23ZM441.31,260.18h4.23v4.23h-4.23v-4.23ZM344.09,264.41h4.23v4.23h-4.23v-4.23ZM352.54,264.41h4.23v4.23h-4.23v-4.23ZM365.22,264.41h4.23v4.23h-4.23v-4.23ZM386.36,264.41h4.23v4.23h-4.23v-4.23ZM394.81,264.41h4.23v4.23h-4.23v-4.23ZM399.04,264.41h4.23v4.23h-4.23v-4.23ZM411.72,264.41h4.23v4.23h-4.23v-4.23ZM424.4,264.41h4.23v4.23h-4.23v-4.23ZM432.86,264.41h4.23v4.23h-4.23v-4.23ZM437.08,264.41h4.23v4.23h-4.23v-4.23ZM339.86,268.64h4.23v4.23h-4.23v-4.23ZM352.54,268.64h4.23v4.23h-4.23v-4.23ZM361,268.64h4.23v4.23h-4.23v-4.23ZM369.45,268.64h4.23v4.23h-4.23v-4.23ZM373.68,268.64h4.23v4.23h-4.23v-4.23ZM386.36,268.64h4.23v4.23h-4.23v-4.23ZM407.49,268.64h4.23v4.23h-4.23v-4.23ZM415.95,268.64h4.23v4.23h-4.23v-4.23ZM420.17,268.64h4.23v4.23h-4.23v-4.23ZM424.4,268.64h4.23v4.23h-4.23v-4.23ZM441.31,268.64h4.23v4.23h-4.23v-4.23ZM352.54,272.86h4.23v4.23h-4.23v-4.23ZM356.77,272.86h4.23v4.23h-4.23v-4.23ZM365.22,272.86h4.23v4.23h-4.23v-4.23ZM382.13,272.86h4.23v4.23h-4.23v-4.23ZM390.59,272.86h4.23v4.23h-4.23v-4.23ZM394.81,272.86h4.23v4.23h-4.23v-4.23ZM399.04,272.86h4.23v4.23h-4.23v-4.23ZM403.27,272.86h4.23v4.23h-4.23v-4.23ZM407.49,272.86h4.23v4.23h-4.23v-4.23ZM411.72,272.86h4.23v4.23h-4.23v-4.23ZM415.95,272.86h4.23v4.23h-4.23v-4.23ZM420.17,272.86h4.23v4.23h-4.23v-4.23ZM424.4,272.86h4.23v4.23h-4.23v-4.23ZM428.63,272.86h4.23v4.23h-4.23v-4.23ZM432.86,272.86h4.23v4.23h-4.23v-4.23ZM437.08,272.86h4.23v4.23h-4.23v-4.23ZM441.31,272.86h4.23v4.23h-4.23v-4.23ZM373.68,277.09h4.23v4.23h-4.23v-4.23ZM382.13,277.09h4.23v4.23h-4.23v-4.23ZM394.81,277.09h4.23v4.23h-4.23v-4.23ZM399.04,277.09h4.23v4.23h-4.23v-4.23ZM407.49,277.09h4.23v4.23h-4.23v-4.23ZM424.4,277.09h4.23v4.23h-4.23v-4.23ZM432.86,277.09h4.23v4.23h-4.23v-4.23ZM441.31,277.09h4.23v4.23h-4.23v-4.23ZM373.68,281.32h4.23v4.23h-4.23v-4.23ZM382.13,281.32h4.23v4.23h-4.23v-4.23ZM394.81,281.32h4.23v4.23h-4.23v-4.23ZM399.04,281.32h4.23v4.23h-4.23v-4.23ZM407.49,281.32h4.23v4.23h-4.23v-4.23ZM415.95,281.32h4.23v4.23h-4.23v-4.23ZM424.4,281.32h4.23v4.23h-4.23v-4.23ZM432.86,281.32h4.23v4.23h-4.23v-4.23ZM437.08,281.32h4.23v4.23h-4.23v-4.23ZM441.31,281.32h4.23v4.23h-4.23v-4.23ZM373.68,285.54h4.23v4.23h-4.23v-4.23ZM377.9,285.54h4.23v4.23h-4.23v-4.23ZM382.13,285.54h4.23v4.23h-4.23v-4.23ZM386.36,285.54h4.23v4.23h-4.23v-4.23ZM403.27,285.54h4.23v4.23h-4.23v-4.23ZM407.49,285.54h4.23v4.23h-4.23v-4.23ZM424.4,285.54h4.23v4.23h-4.23v-4.23ZM441.31,285.54h4.23v4.23h-4.23v-4.23ZM382.13,289.77h4.23v4.23h-4.23v-4.23ZM407.49,289.77h4.23v4.23h-4.23v-4.23ZM411.72,289.77h4.23v4.23h-4.23v-4.23ZM415.95,289.77h4.23v4.23h-4.23v-4.23ZM420.17,289.77h4.23v4.23h-4.23v-4.23ZM424.4,289.77h4.23v4.23h-4.23v-4.23ZM428.63,289.77h4.23v4.23h-4.23v-4.23ZM437.08,289.77h4.23v4.23h-4.23v-4.23ZM373.68,294h4.23v4.23h-4.23v-4.23ZM382.13,294h4.23v4.23h-4.23v-4.23ZM394.81,294h4.23v4.23h-4.23v-4.23ZM399.04,294h4.23v4.23h-4.23v-4.23ZM403.27,294h4.23v4.23h-4.23v-4.23ZM407.49,294h4.23v4.23h-4.23v-4.23ZM411.72,294h4.23v4.23h-4.23v-4.23ZM415.95,294h4.23v4.23h-4.23v-4.23ZM424.4,294h4.23v4.23h-4.23v-4.23ZM428.63,294h4.23v4.23h-4.23v-4.23ZM432.86,294h4.23v4.23h-4.23v-4.23ZM437.08,294h4.23v4.23h-4.23v-4.23ZM441.31,294h4.23v4.23h-4.23v-4.23ZM373.68,298.23h4.23v4.23h-4.23v-4.23ZM382.13,298.23h4.23v4.23h-4.23v-4.23ZM399.04,298.23h4.23v4.23h-4.23v-4.23ZM403.27,298.23h4.23v4.23h-4.23v-4.23ZM407.49,298.23h4.23v4.23h-4.23v-4.23ZM411.72,298.23h4.23v4.23h-4.23v-4.23ZM415.95,298.23h4.23v4.23h-4.23v-4.23ZM424.4,298.23h4.23v4.23h-4.23v-4.23ZM432.86,298.23h4.23v4.23h-4.23v-4.23ZM437.08,298.23h4.23v4.23h-4.23v-4.23ZM386.36,302.45h4.23v4.23h-4.23v-4.23ZM390.59,302.45h4.23v4.23h-4.23v-4.23ZM394.81,302.45h4.23v4.23h-4.23v-4.23ZM399.04,302.45h4.23v4.23h-4.23v-4.23ZM411.72,302.45h4.23v4.23h-4.23v-4.23ZM415.95,302.45h4.23v4.23h-4.23v-4.23ZM424.4,302.45h4.23v4.23h-4.23v-4.23ZM432.86,302.45h4.23v4.23h-4.23v-4.23ZM373.68,306.68h4.23v4.23h-4.23v-4.23ZM377.9,306.68h4.23v4.23h-4.23v-4.23ZM386.36,306.68h4.23v4.23h-4.23v-4.23ZM390.59,306.68h4.23v4.23h-4.23v-4.23ZM403.27,306.68h4.23v4.23h-4.23v-4.23ZM411.72,306.68h4.23v4.23h-4.23v-4.23ZM420.17,306.68h4.23v4.23h-4.23v-4.23ZM424.4,306.68h4.23v4.23h-4.23v-4.23ZM428.63,306.68h4.23v4.23h-4.23v-4.23ZM432.86,306.68h4.23v4.23h-4.23v-4.23ZM437.08,306.68h4.23v4.23h-4.23v-4.23ZM441.31,306.68h4.23v4.23h-4.23v-4.23Z"/>
    <path class="cls-1" d="M339.86,205.23h29.67v29.67h-29.67v-29.67ZM344.81,210.18v19.78h19.78v-19.78h-19.78Z"/>
    <path class="cls-1" d="M348.32,213.69h12.68v12.68h-12.68v-12.68Z"/>
    <path class="cls-1" d="M339.86,281.32h29.67v29.67h-29.67v-29.67ZM344.81,286.26v19.78h19.78v-19.78h-19.78Z"/>
    <path class="cls-1" d="M348.32,289.77h12.68v12.68h-12.68v-12.68Z"/>
    <path class="cls-1" d="M415.95,205.23h29.67v29.67h-29.67v-29.67ZM420.89,210.18v19.78h19.78v-19.78h-19.78Z"/>
    <path class="cls-1" d="M424.4,213.69h12.68v12.68h-12.68v-12.68Z"/>
  </g>
  <g id="Layer_11" data-name="Layer 11">
    <g>
      <path class="cls-5" d="M385.17,31.46s.07-.04.1-.06l-2.68-3.34c-.49.53-4.03,4.18-9.55,3.97-4.45-.17-7.34-2.73-8.64-4.18,21.22,26.48,42.45,52.95,63.67,79.43-.53-.89-3.91-6.77-1.42-13.26,1.11-2.9,2.95-4.8,4.14-5.83l-3.02-3.77h0c-1.44,1.15-3.52.94-4.66-.47s-.88-3.49.56-4.65h0s-1.33-1.65-1.33-1.65h0c-1.44,1.15-3.52.94-4.66-.47s-.88-3.49.56-4.65h0s-1.43-1.78-1.43-1.78h0c-1.44,1.15-3.52.94-4.66-.47s-.88-3.49.56-4.65h0s-1.23-1.54-1.23-1.54c-.03.03-.05.06-.08.08-1.44,1.15-3.52.94-4.66-.47-1.13-1.41-.88-3.49.56-4.65.03-.02.07-.04.1-.06l-1.44-1.79c-1.44,1.15-3.52.94-4.66-.47s-.88-3.49.56-4.65l-1.43-1.78c-1.44,1.15-3.52.94-4.66-.47s-.88-3.49.56-4.65l-1.43-1.78h0c-1.44,1.15-3.52.94-4.66-.47s-.88-3.49.56-4.65h0s-1.43-1.79-1.43-1.79c-.03.03-.05.06-.08.08-1.44,1.15-3.52.94-4.66-.47s-.88-3.49.56-4.65Z"/>
      <path class="cls-5" d="M363.64,26.91l-.38-.48c-52.11,41.77-104.22,83.54-156.32,125.31l.76.95c1.14,1.58,3.02,4.96,2.26,9.3-.94,5.39-5.2,7.99-5.81,8.34l2.68,3.34s.05-.06.08-.08c1.41-1.13,3.48-.91,4.61.51s.91,3.48-.51,4.61c-.03.02-.06.04-.1.06l1.43,1.79h0c1.41-1.13,3.48-.91,4.61.51s.91,3.48-.51,4.61h0s1.43,1.78,1.43,1.78c1.41-1.13,3.48-.91,4.61.51s.91,3.48-.51,4.61l1.43,1.78c1.41-1.13,3.48-.91,4.61.51s.91,3.48-.51,4.61l1.44,1.79s.05-.06.08-.08c1.41-1.13,3.48-.91,4.61.51s.91,3.48-.51,4.61c-.03.02-.06.04-.1.06l1.23,1.53h0c1.41-1.13,3.48-.91,4.61.51,1.13,1.41.91,3.48-.51,4.61h0s1.43,1.78,1.43,1.78h0c1.41-1.13,3.48-.91,4.61.51s.91,3.48-.51,4.61h0s1.33,1.65,1.33,1.65h0c1.41-1.13,3.48-.91,4.61.51,1.13,1.41.91,3.48-.51,4.61h0s3.02,3.77,3.02,3.77c1.24-.92,3.46-2.28,6.49-2.69,6.79-.94,11.78,3.65,12.53,4.36l156.32-125.31-63.29-78.96s0,0,0,0l-.76-.95s0,0,0,0Z"/>
    </g>
    <rect class="cls-2" x="222.82" y="89.32" width="190.22" height="76.99" rx="11.59" ry="11.59" transform="translate(-10.08 226.94) rotate(-38.72)"/>
    <line class="cls-2" x1="326" y1="72.01" x2="374.16" y2="132.09"/>
    <g>
      <path class="cls-4" d="M260.27,170.81l-5.64,4.52c-.81.65-1.54.94-2.18.85-.64-.09-1.28-.53-1.92-1.32l-11.12-13.87c-.65-.81-.94-1.54-.87-2.18.07-.64.5-1.28,1.3-1.92l5.98-4.79c.88-.71,1.69-1.26,2.42-1.67.73-.41,1.48-.66,2.24-.76.64-.09,1.29-.07,1.95.06.66.13,1.26.36,1.83.71s1.06.78,1.49,1.32c1.48,1.85,1.64,3.94.48,6.27,3.04-1.17,5.46-.64,7.25,1.59.83,1.03,1.31,2.17,1.44,3.42.13,1.25-.09,2.43-.67,3.55-.37.69-.89,1.37-1.54,2.05-.65.68-1.46,1.41-2.44,2.19ZM243.57,158.5l3.82,4.77,3.42-2.74c.93-.75,1.58-1.41,1.95-1.99.37-.58.49-1.23.36-1.94-.07-.52-.28-1-.63-1.43-.75-.93-1.57-1.28-2.48-1.06-.91.22-2.04.88-3.4,1.97l-3.03,2.43ZM253.43,162.84l-3.89,3.12,4.32,5.39,4.01-3.22c2.52-2.02,3.06-3.95,1.6-5.77-.75-.93-1.62-1.34-2.61-1.24-.99.11-2.14.68-3.44,1.72Z"/>
      <path class="cls-4" d="M269.51,160.18l-11.65-14.54c-.61-.75-.89-1.46-.85-2.11.04-.65.33-1.2.88-1.64.56-.45,1.17-.63,1.81-.53.65.09,1.28.52,1.89,1.29l11.65,14.54c.61.76.89,1.47.85,2.13-.04.66-.35,1.21-.91,1.66-.54.43-1.13.59-1.79.49-.65-.1-1.28-.53-1.89-1.29Z"/>
      <path class="cls-4" d="M269.44,136.36l10.76,13.43,7.58-6.07c.6-.48,1.18-.71,1.74-.67s1.02.27,1.37.72c.36.45.5.95.4,1.48-.09.54-.45,1.05-1.06,1.54l-9.02,7.23c-.81.65-1.54.94-2.19.87-.65-.07-1.29-.52-1.94-1.32l-11.39-14.21c-.61-.75-.89-1.46-.85-2.11.04-.65.33-1.2.89-1.64.56-.45,1.17-.63,1.81-.53.65.09,1.28.52,1.89,1.29Z"/>
      <path class="cls-4" d="M285,123.88l10.76,13.43,7.58-6.07c.6-.48,1.19-.71,1.74-.67s1.02.27,1.37.72c.36.45.5.95.4,1.49-.09.54-.45,1.05-1.06,1.54l-9.02,7.23c-.81.65-1.54.94-2.19.87-.65-.07-1.29-.52-1.94-1.32l-11.39-14.21c-.61-.75-.89-1.46-.85-2.11.04-.65.33-1.2.89-1.64.56-.45,1.17-.63,1.81-.53.65.09,1.28.52,1.89,1.29Z"/>
      <path class="cls-4" d="M309.81,105.53l-8.42,6.75,3.63,4.53,7.75-6.21c.57-.46,1.1-.67,1.58-.64.49.03.9.26,1.23.68.34.42.47.87.41,1.36-.06.49-.39.96-.97,1.43l-7.75,6.21,4.21,5.25,8.71-6.98c.59-.47,1.14-.69,1.66-.66.52.03.96.28,1.32.73.35.44.49.91.41,1.42-.08.51-.41,1-1,1.47l-10.16,8.14c-.81.65-1.54.94-2.19.87-.65-.07-1.29-.52-1.94-1.32l-11.12-13.87c-.43-.54-.7-1.04-.81-1.51s-.06-.92.15-1.34c.22-.43.59-.85,1.12-1.28l9.87-7.91c.6-.48,1.14-.7,1.65-.67.5.03.92.26,1.27.69.35.44.49.9.41,1.4-.08.5-.42.98-1.01,1.46Z"/>
      <path class="cls-4" d="M326.99,92.09l-4.08,3.27,10.74,13.4c.62.77.91,1.48.86,2.13-.04.65-.34,1.19-.88,1.63-.55.44-1.16.62-1.81.52-.65-.1-1.28-.53-1.89-1.29l-10.74-13.4-4.08,3.27c-.64.51-1.22.75-1.76.72-.54-.03-.99-.28-1.36-.74-.38-.48-.52-.98-.42-1.52.1-.54.46-1.05,1.07-1.54l11.88-9.52c.65-.52,1.24-.76,1.78-.73.54.03,1,.28,1.37.74.37.46.51.96.42,1.5-.09.54-.46,1.06-1.1,1.57Z"/>
    </g>
    <g>
      <path class="cls-4" d="M332.18,146.17l-1.38-1.72c-.06-.07-.06-.17,0-.24,1.62-1.89,4.77-2.14,6.55-.32,4.44,4.55-2.34,11.07-6.74,6.25-1.98-2.17-3.67-5.02-5.68-7.1-1.54-1.6-3.89.38-2.77,2.13.87,1.36,2.33,1.24,3.34.2.08-.08.21-.07.28.01l1.36,1.7c.06.07.06.17,0,.24-2.57,2.95-7.38,1.57-7.97-2.37-.61-4.09,4.68-6.95,7.7-3.99,2.12,2.07,3.9,5.2,5.96,7.41,1.89,2.02,4.52-.54,2.45-2.52-.49-.47-1.6-.63-2.15-.19l-.68.54c-.08.06-.2.05-.26-.03Z"/>
      <path class="cls-4" d="M280.26,177.82c-1.85-2.85.7-6.54,3.98-6.03.14-2.72,3.31-4.63,5.75-3.3.29.16.9.6,1.1.84l3.32,4.14s.05.09.04.14c0,.05-.03.09-.07.12l-1.92,1.54s-.09.05-.14.04c-.05,0-.09-.03-.12-.07l-3.32-4.14s-.43-.18-.49-.2c-.86-.23-1.68.42-1.64,1.31,0,.07.07.51.09.53l3.32,4.14s.05.09.04.14c0,.05-.03.09-.07.12l-1.92,1.54s-.09.05-.14.04c-.05,0-.09-.03-.12-.07l-3.32-4.14s-.38-.19-.44-.2c-.8-.25-1.69.36-1.69,1.21,0,.17.09.63.18.74l3.23,4.02s.05.09.04.14c0,.05-.03.09-.07.12l-1.92,1.54s-.09.05-.14.04c-.05,0-.09-.03-.12-.07l-3.41-4.25Z"/>
      <path class="cls-4" d="M298.3,167.41l1.37,1.71s.05.1.04.16h0s-.02.08-.05.1c-2.49,2.59-6.66,1.73-7.77-1.78-1.24-3.9,3.46-7.48,6.83-5.2.18.12.76.54.86.66l3.04,3.8s.05.09.04.14h0s-.03.09-.07.12l-1.92,1.54s-.09.05-.14.04h0s-.09-.03-.12-.07l-3-3.74c-.41-.51-1.49-.59-2.04-.27-1.34.8-1.13,2.47.11,3.26.81.52,1.91.16,2.54-.5.08-.08.21-.08.28.01Z"/>
      <path class="cls-4" d="M342.69,134.65c4.7-4.58,10.88,2.61,6.28,6.59-4.48,3.87-10.35-2.61-6.28-6.59ZM344.55,136.51c-1.67,1.78,1.62,4.58,2.99,2.35,1.06-1.72-1.4-4.04-2.99-2.35Z"/>
      <path class="cls-4" d="M317.41,155.26l-1.98,1.59s-.09.05-.14.04h0s-.09-.03-.12-.07l-3.27-4.08c-.14-.17-.45-1-.52-1.25-.86-3.22,2.72-6.3,5.76-4.99.25.11,1.22.68,1.35.85l3.32,4.14s.05.09.04.14h0s-.03.09-.07.12l-1.98,1.59s-.09.05-.14.04h0s-.09-.03-.12-.07l-3.09-3.85s-.33-.27-.38-.3c-.97-.64-2.25.29-2,1.39.02.08.12.4.14.43l3.23,4.02c.06.08.05.2-.03.26Z"/>
      <path class="cls-4" d="M302.47,151.45l7.59,9.47s.05.09.04.14h0s-.03.09-.07.12l-2.04,1.63s-.09.05-.14.04h0s-.09-.03-.12-.07l-7.59-9.47c-.06-.08-.05-.2.03-.26l2.04-1.63c.08-.06.2-.05.26.03Z"/>
      <path class="cls-4" d="M298.67,154.5l7.59,9.47s.05.09.04.14h0s-.03.09-.07.12l-1.98,1.59c-.08.06-.2.05-.26-.03l-7.59-9.47c-.06-.08-.05-.2.03-.26l1.98-1.59c.08-.06.2-.05.26.03Z"/>
      <rect class="cls-4" x="308.54" y="151.08" width="2.91" height="8.8" rx=".19" ry=".19" transform="translate(-29.13 228.05) rotate(-38.72)"/>
      <rect class="cls-4" x="338.61" y="138.22" width="2.91" height="8.58" rx=".19" ry=".19" transform="translate(-14.41 244.01) rotate(-38.72)"/>
      <path class="cls-4" d="M304.61,149.14c1.66-1.75,3.95.8,2.25,2.27-1.6,1.38-3.62-.81-2.25-2.27Z"/>
      <path class="cls-4" d="M334.87,136.17c1.65-1.53,3.71.88,2.2,2.32-1.6,1.52-3.83-.81-2.2-2.32Z"/>
    </g>
    <g>
      <path class="cls-5" d="M321.19,345.63s.05-.03.08-.05l-2.06-2.57c-.38.41-3.1,3.22-7.36,3.06-3.42-.13-5.65-2.1-6.65-3.22,16.34,20.39,32.68,40.77,49.03,61.16-.41-.68-3.01-5.21-1.1-10.21.85-2.23,2.27-3.7,3.19-4.49l-2.33-2.9h0c-1.11.89-2.71.73-3.59-.36-.87-1.09-.68-2.69.43-3.58h0s-1.02-1.27-1.02-1.27h0c-1.11.89-2.71.73-3.59-.36s-.68-2.69.43-3.58h0s-1.1-1.37-1.1-1.37h0c-1.11.89-2.71.73-3.59-.36s-.68-2.69.43-3.58h0s-.95-1.18-.95-1.18c-.02.02-.04.04-.06.06-1.11.89-2.71.73-3.59-.36s-.68-2.69.43-3.58c.02-.02.05-.03.08-.05l-1.11-1.38c-1.11.89-2.71.73-3.59-.36s-.68-2.69.43-3.58l-1.1-1.37c-1.11.89-2.71.73-3.59-.36-.87-1.09-.68-2.69.43-3.58l-1.1-1.37h0c-1.11.89-2.71.73-3.59-.36-.87-1.09-.68-2.69.43-3.58h0s-1.1-1.38-1.1-1.38c-.02.02-.04.04-.06.06-1.11.89-2.71.73-3.59-.36-.87-1.09-.68-2.69.43-3.58Z"/>
      <path class="cls-5" d="M304.61,342.12l-.29-.37c-40.12,32.16-80.25,64.33-120.37,96.49l.58.73c.88,1.22,2.32,3.82,1.74,7.16-.72,4.15-4.01,6.15-4.48,6.42l2.06,2.57s.04-.04.06-.06c1.09-.87,2.68-.7,3.55.39s.7,2.68-.39,3.55c-.02.02-.05.03-.07.05l1.1,1.38h0c1.09-.87,2.68-.7,3.55.39.87,1.09.7,2.68-.39,3.55h0s1.1,1.37,1.1,1.37c1.09-.87,2.68-.7,3.55.39.87,1.09.7,2.68-.39,3.55l1.1,1.37c1.09-.87,2.68-.7,3.55.39s.7,2.68-.39,3.55l1.11,1.38s.04-.04.06-.06c1.09-.87,2.68-.7,3.55.39s.7,2.68-.39,3.55c-.02.02-.05.03-.07.05l.95,1.18h0c1.09-.87,2.68-.7,3.55.39s.7,2.68-.39,3.55h0s1.1,1.37,1.1,1.37h0c1.09-.87,2.68-.7,3.55.39s.7,2.68-.39,3.55h0s1.02,1.27,1.02,1.27h0c1.09-.87,2.68-.7,3.55.39s.7,2.68-.39,3.55h0s2.33,2.9,2.33,2.9c.96-.71,2.67-1.75,5-2.07,5.23-.72,9.07,2.81,9.65,3.36l120.37-96.49-48.74-60.8s0,0,0,0l-.58-.73s0,0,0,0Z"/>
    </g>
    <rect class="cls-2" x="196.18" y="390.18" width="146.48" height="59.29" rx="11.59" ry="11.59" transform="translate(-203.38 260.76) rotate(-38.72)"/>
    <line class="cls-2" x1="275.63" y1="376.85" x2="312.71" y2="423.11"/>
    <g>
      <path class="cls-4" d="M225,452.93l-4.34,3.48c-.63.5-1.19.72-1.68.66-.49-.07-.99-.41-1.48-1.02l-8.56-10.68c-.5-.63-.73-1.19-.67-1.68s.39-.99,1-1.48l4.6-3.69c.68-.54,1.3-.97,1.86-1.29s1.14-.51,1.73-.59c.5-.07,1-.05,1.5.05.5.1.97.28,1.41.54s.82.6,1.15,1.01c1.14,1.42,1.26,3.03.37,4.83,2.34-.9,4.2-.49,5.58,1.22.64.79,1.01,1.67,1.11,2.64.1.96-.07,1.87-.52,2.73-.29.53-.68,1.05-1.19,1.58-.5.52-1.13,1.09-1.88,1.69ZM212.14,443.45l2.94,3.67,2.64-2.11c.72-.58,1.22-1.09,1.5-1.54.28-.45.37-.95.27-1.49-.06-.4-.22-.77-.49-1.1-.58-.72-1.21-.99-1.91-.82-.7.17-1.57.68-2.62,1.52l-2.34,1.87ZM219.73,446.79l-2.99,2.4,3.32,4.15,3.09-2.48c1.94-1.56,2.36-3.04,1.23-4.44-.57-.72-1.24-1.04-2-.95s-1.65.52-2.65,1.32Z"/>
      <path class="cls-4" d="M232.12,444.74l-8.97-11.19c-.47-.58-.68-1.12-.65-1.63.03-.5.26-.92.68-1.26.43-.35.9-.48,1.4-.41.5.07.98.4,1.46.99l8.97,11.19c.47.59.69,1.13.65,1.64-.03.5-.27.93-.7,1.28-.41.33-.87.46-1.38.38-.5-.08-.99-.41-1.46-.99Z"/>
      <path class="cls-4" d="M232.06,426.4l8.29,10.34,5.83-4.68c.46-.37.91-.55,1.34-.52.43.03.78.21,1.06.55.28.35.38.73.31,1.14-.07.41-.34.81-.82,1.19l-6.95,5.57c-.63.5-1.19.73-1.69.67-.5-.06-1-.4-1.49-1.02l-8.77-10.94c-.47-.58-.68-1.12-.66-1.62.03-.5.26-.92.68-1.26.43-.35.9-.48,1.4-.41.5.07.98.4,1.46.99Z"/>
      <path class="cls-4" d="M244.05,416.79l8.29,10.34,5.83-4.68c.46-.37.91-.55,1.34-.52.43.03.78.21,1.06.55.28.35.38.73.31,1.14-.07.41-.34.81-.82,1.19l-6.95,5.57c-.63.5-1.19.72-1.69.67-.5-.06-1-.4-1.49-1.02l-8.77-10.94c-.47-.58-.68-1.12-.66-1.62.03-.5.26-.92.68-1.26.43-.35.9-.48,1.4-.41.5.07.98.4,1.45.99Z"/>
      <path class="cls-4" d="M263.15,402.66l-6.48,5.2,2.8,3.49,5.97-4.79c.44-.35.85-.52,1.22-.49.37.02.69.2.95.52s.36.67.31,1.05c-.05.37-.3.74-.75,1.1l-5.97,4.79,3.24,4.04,6.71-5.38c.45-.36.88-.53,1.27-.5.4.03.74.21,1.02.56.27.34.37.7.31,1.09-.06.39-.32.77-.77,1.13l-7.82,6.27c-.63.5-1.19.72-1.69.67-.5-.06-.99-.4-1.49-1.02l-8.56-10.68c-.33-.41-.54-.8-.63-1.16-.09-.36-.05-.71.12-1.03s.45-.66.86-.98l7.6-6.09c.46-.37.88-.54,1.27-.51.39.02.71.2.98.53.27.34.37.69.31,1.08-.06.38-.32.76-.78,1.12Z"/>
      <path class="cls-4" d="M276.38,392.31l-3.14,2.52,8.27,10.32c.48.59.7,1.14.66,1.64-.04.5-.26.92-.68,1.25-.43.34-.89.47-1.39.4-.5-.08-.99-.41-1.46-1l-8.27-10.32-3.14,2.52c-.49.39-.94.58-1.35.55-.41-.03-.76-.22-1.05-.57-.29-.37-.4-.76-.33-1.17s.35-.81.82-1.19l9.15-7.33c.5-.4.96-.59,1.37-.56.42.03.77.22,1.05.57.29.36.39.74.32,1.15-.07.41-.35.82-.84,1.21Z"/>
    </g>
    <g>
      <path class="cls-4" d="M280.39,433.95l-1.06-1.33c-.04-.05-.04-.13,0-.18,1.25-1.45,3.68-1.64,5.04-.24,3.42,3.51-1.8,8.53-5.19,4.81-1.52-1.67-2.83-3.86-4.38-5.47-1.19-1.23-2.99.29-2.13,1.64.67,1.05,1.79.95,2.58.15.06-.06.16-.06.21.01l1.05,1.31c.04.05.04.13,0,.18-1.98,2.27-5.68,1.21-6.14-1.83-.47-3.15,3.6-5.35,5.93-3.07,1.63,1.6,3,4,4.59,5.7,1.45,1.55,3.48-.42,1.89-1.94-.38-.36-1.23-.49-1.66-.15l-.52.42c-.06.05-.15.04-.2-.02Z"/>
      <path class="cls-4" d="M240.41,458.33c-1.42-2.19.54-5.04,3.06-4.64.1-2.09,2.55-3.57,4.42-2.54.23.12.69.46.84.65l2.55,3.19s.03.07.03.11c0,.04-.02.07-.05.1l-1.48,1.19s-.07.03-.11.03c-.04,0-.07-.02-.1-.05l-2.55-3.19s-.33-.14-.38-.16c-.66-.18-1.29.32-1.26,1.01,0,.05.06.39.07.41l2.55,3.19s.03.07.03.11c0,.04-.02.07-.05.1l-1.48,1.19s-.07.03-.11.03c-.04,0-.07-.02-.1-.05l-2.55-3.19s-.3-.14-.34-.16c-.62-.19-1.3.28-1.3.93,0,.13.07.49.14.57l2.48,3.1s.03.07.03.11c0,.04-.02.07-.05.1l-1.48,1.19s-.07.03-.11.03c-.04,0-.07-.02-.1-.05l-2.62-3.27Z"/>
      <path class="cls-4" d="M254.3,450.32l1.06,1.32s.04.08.03.12h0s-.02.06-.04.08c-1.92,2-5.13,1.33-5.98-1.37-.95-3,2.66-5.76,5.26-4,.14.09.58.41.66.51l2.34,2.92s.03.07.03.11h0s-.02.07-.05.1l-1.48,1.19s-.07.03-.11.03h0s-.07-.02-.1-.05l-2.31-2.88c-.31-.39-1.15-.46-1.57-.21-1.03.62-.87,1.9.08,2.51.63.4,1.47.13,1.96-.38.06-.06.16-.06.22,0Z"/>
      <path class="cls-4" d="M288.48,425.09c3.62-3.53,8.38,2.01,4.83,5.07s-7.97-2.01-4.83-5.07ZM289.92,426.52c-1.29,1.37,1.25,3.53,2.31,1.81.82-1.33-1.08-3.11-2.31-1.81Z"/>
      <path class="cls-4" d="M269.02,440.96l-1.52,1.22s-.07.03-.11.03h0s-.07-.02-.1-.05l-2.52-3.14c-.11-.13-.35-.77-.4-.96-.66-2.48,2.1-4.85,4.44-3.84.19.08.94.53,1.04.66l2.55,3.19s.03.07.03.11h0s-.02.07-.05.1l-1.52,1.22s-.07.03-.11.03h0s-.07-.02-.1-.05l-2.38-2.97s-.25-.21-.29-.23c-.75-.5-1.74.22-1.54,1.07.01.06.09.31.11.33l2.48,3.1c.05.06.04.15-.02.2Z"/>
      <path class="cls-4" d="M257.51,438.02l5.84,7.29s.03.07.03.11h0s-.02.07-.05.1l-1.57,1.26s-.07.03-.11.03h0s-.07-.02-.1-.05l-5.84-7.29c-.05-.06-.04-.15.02-.2l1.57-1.26c.06-.05.15-.04.2.02Z"/>
      <path class="cls-4" d="M254.59,440.37l5.84,7.29s.03.07.03.11h0s-.02.07-.05.1l-1.52,1.22c-.06.05-.15.04-.2-.02l-5.84-7.29c-.05-.06-.04-.15.02-.2l1.52-1.22c.06-.05.15-.04.2.02Z"/>
      <rect class="cls-4" x="262.18" y="437.74" width="2.24" height="6.77" rx=".14" ry=".14" transform="translate(-218.04 261.62) rotate(-38.72)"/>
      <rect class="cls-4" x="285.34" y="427.84" width="2.24" height="6.61" rx=".14" ry=".14" transform="translate(-206.71 273.9) rotate(-38.72)"/>
      <path class="cls-4" d="M259.16,436.25c1.28-1.35,3.04.62,1.73,1.75-1.23,1.06-2.79-.63-1.73-1.75Z"/>
      <path class="cls-4" d="M282.46,426.25c1.27-1.18,2.86.68,1.69,1.78-1.23,1.17-2.95-.62-1.69-1.78Z"/>
    </g>
    <g>
      <path class="cls-5" d="M637.16,177.74s.06-.02.1-.03l-1.44-3.41c-.53.32-4.33,2.53-8.87,1.06-3.65-1.18-5.46-3.99-6.19-5.5,11.41,26.98,22.82,53.95,34.23,80.93-.23-.86-1.65-6.54,1.93-11.35,1.6-2.15,3.58-3.29,4.81-3.87l-1.63-3.84h0c-1.47.62-3.15-.04-3.76-1.48-.61-1.44.09-3.11,1.55-3.73h0s-.71-1.68-.71-1.68h0c-1.47.62-3.15-.04-3.76-1.48-.61-1.44.09-3.11,1.55-3.73h0s-.77-1.81-.77-1.81h0c-1.47.62-3.15-.04-3.76-1.48-.61-1.44.09-3.11,1.55-3.73h0s-.66-1.56-.66-1.56c-.03.01-.06.03-.09.05-1.47.62-3.15-.04-3.76-1.48-.61-1.44.09-3.11,1.55-3.73.03-.01.06-.02.1-.03l-.77-1.82c-1.47.62-3.15-.04-3.76-1.48s.09-3.11,1.55-3.73l-.77-1.81c-1.47.62-3.15-.04-3.76-1.48s.09-3.11,1.55-3.73l-.77-1.81h0c-1.47.62-3.15-.04-3.76-1.48s.09-3.11,1.55-3.73h0s-.77-1.82-.77-1.82c-.03.01-.06.03-.09.05-1.47.62-3.15-.04-3.76-1.48s.09-3.11,1.55-3.73Z"/>
      <path class="cls-5" d="M620.35,168.9l-.21-.49c-53.09,22.46-106.19,44.91-159.28,67.37l.41.96c.58,1.58,1.34,4.83-.3,8.25-2.05,4.26-6.2,5.41-6.79,5.56l1.44,3.41s.06-.03.09-.05c1.44-.61,3.1.06,3.71,1.5s-.06,3.1-1.5,3.71c-.03.01-.06.02-.09.03l.77,1.82h0c1.44-.61,3.1.06,3.71,1.5s-.06,3.1-1.5,3.71h0s.77,1.81.77,1.81c1.44-.61,3.1.06,3.71,1.5.61,1.44-.06,3.1-1.5,3.71l.77,1.81c1.44-.61,3.1.06,3.71,1.5s-.06,3.1-1.5,3.71l.77,1.82s.06-.03.09-.05c1.44-.61,3.1.06,3.71,1.5s-.06,3.1-1.5,3.71c-.03.01-.06.02-.09.03l.66,1.56h0c1.44-.61,3.1.06,3.71,1.5s-.06,3.1-1.5,3.71h0s.77,1.81.77,1.81h0c1.44-.61,3.1.06,3.71,1.5.61,1.44-.06,3.1-1.5,3.71h0s.71,1.68.71,1.68h0c1.44-.61,3.1.06,3.71,1.5.61,1.44-.06,3.1-1.5,3.71h0s1.63,3.84,1.63,3.84c1.25-.47,3.41-1.08,6.03-.71,5.86.82,8.93,5.8,9.39,6.56l159.28-67.37-34.03-80.46s0,0,0,0l-.41-.96s0,0,0,0Z"/>
    </g>
    <rect class="cls-2" x="476.57" y="208.76" width="164.2" height="66.46" rx="11.59" ry="11.59" transform="translate(-50.13 236.74) rotate(-22.93)"/>
    <line class="cls-2" x1="578.49" y1="197.53" x2="604.38" y2="258.74"/>
    <g>
      <path class="cls-4" d="M500.65,264.16l-5.75,2.43c-.83.35-1.5.41-2.01.19-.51-.22-.94-.74-1.28-1.55l-5.98-14.13c-.35-.83-.42-1.5-.21-2.02.21-.52.72-.95,1.53-1.29l6.09-2.58c.9-.38,1.7-.65,2.4-.82.71-.17,1.38-.2,2.04-.11.56.08,1.09.25,1.61.51s.96.6,1.35,1.02c.39.42.7.9.93,1.44.8,1.88.44,3.65-1.07,5.32,2.8-.26,4.69.75,5.65,3.02.44,1.05.58,2.11.39,3.18-.18,1.07-.65,2-1.39,2.79-.47.48-1.06.93-1.76,1.34-.7.41-1.55.83-2.54,1.25ZM489.66,250.02l2.06,4.86,3.49-1.47c.95-.4,1.64-.8,2.09-1.2.44-.4.69-.91.75-1.53.06-.45,0-.9-.19-1.34-.4-.95-1.01-1.44-1.81-1.46-.81-.03-1.9.25-3.29.84l-3.09,1.31ZM496.83,255.93l-3.96,1.68,2.32,5.49,4.09-1.73c2.57-1.09,3.47-2.56,2.68-4.42-.4-.95-1.03-1.5-1.87-1.64-.85-.15-1.93.06-3.26.62Z"/>
      <path class="cls-4" d="M510.82,257.5l-6.26-14.81c-.33-.77-.39-1.42-.21-1.95.19-.53.56-.92,1.12-1.15.57-.24,1.12-.25,1.63-.02s.94.74,1.27,1.51l6.26,14.81c.33.78.4,1.43.21,1.97-.19.54-.57.92-1.15,1.17-.55.23-1.08.23-1.6-.01-.52-.24-.94-.74-1.27-1.51Z"/>
      <path class="cls-4" d="M516.35,237.7l5.79,13.68,7.72-3.26c.62-.26,1.15-.31,1.61-.15.46.16.78.47.97.92.2.46.19.9-.01,1.33-.2.42-.62.77-1.24,1.03l-9.2,3.89c-.83.35-1.5.42-2.02.2-.52-.21-.95-.73-1.3-1.55l-6.12-14.48c-.33-.77-.4-1.42-.21-1.95s.56-.92,1.12-1.16c.57-.24,1.12-.25,1.63-.02.52.23.94.74,1.27,1.51Z"/>
      <path class="cls-4" d="M532.21,230.99l5.79,13.68,7.72-3.26c.62-.26,1.15-.31,1.61-.15.46.16.78.47.97.92.2.46.19.9-.01,1.33-.21.42-.62.77-1.24,1.03l-9.19,3.89c-.83.35-1.5.42-2.02.21-.52-.21-.95-.73-1.3-1.55l-6.12-14.48c-.32-.77-.4-1.42-.21-1.95.18-.53.56-.92,1.12-1.15.57-.24,1.12-.25,1.63-.02.52.23.94.74,1.27,1.51Z"/>
      <path class="cls-4" d="M557.13,221.57l-8.58,3.63,1.95,4.62,7.9-3.34c.58-.25,1.07-.3,1.47-.16.4.14.69.42.87.85.18.43.19.83.02,1.22-.17.39-.55.71-1.14.96l-7.9,3.34,2.26,5.35,8.87-3.75c.6-.25,1.11-.3,1.53-.15.42.15.73.45.93.92.19.44.19.87,0,1.28-.19.41-.58.73-1.18.99l-10.35,4.38c-.83.35-1.5.42-2.02.21-.52-.21-.95-.73-1.3-1.55l-5.98-14.13c-.23-.55-.34-1.03-.32-1.44.02-.42.16-.77.44-1.08.28-.3.69-.57,1.23-.8l10.05-4.25c.61-.26,1.12-.31,1.52-.17.41.15.7.44.89.87.19.44.19.86,0,1.26-.18.4-.57.72-1.18.98Z"/>
      <path class="cls-4" d="M574.55,214.45l-4.15,1.76,5.78,13.66c.33.79.4,1.44.21,1.97-.19.53-.56.91-1.12,1.15-.56.24-1.1.24-1.62,0-.52-.23-.94-.74-1.27-1.52l-5.78-13.66-4.15,1.76c-.65.27-1.19.34-1.63.18-.44-.15-.76-.46-.95-.94-.21-.49-.2-.94,0-1.36.21-.42.63-.76,1.25-1.03l12.1-5.12c.66-.28,1.21-.34,1.65-.18.44.15.76.47.96.94.2.47.2.92,0,1.34-.2.42-.63.77-1.28,1.05Z"/>
    </g>
    <g>
      <path class="cls-4" d="M566.2,260.57l-.74-1.75c-.03-.07,0-.15.06-.19,1.79-1.19,4.47-.65,5.51,1.27,2.62,4.83-4.54,8.65-7.07,3.61-1.13-2.26-1.87-5.03-3.05-7.23-.91-1.69-3.32-.6-2.8,1.12.4,1.34,1.64,1.57,2.73.95.08-.05.19-.01.23.08l.73,1.73c.03.07,0,.15-.06.2-2.83,1.85-6.5-.43-6.06-3.84s5.52-4.68,7.33-1.5c1.27,2.22,2.02,5.23,3.21,7.55,1.09,2.12,3.88.61,2.63-1.52-.3-.51-1.18-.9-1.74-.67l-.69.29c-.08.03-.18,0-.21-.09Z"/>
      <path class="cls-4" d="M515.64,274.67c-.86-2.8,2.12-5.27,4.72-4.08.75-2.22,3.84-3.07,5.55-1.39.21.2.61.71.71.96l1.78,4.22s.02.08,0,.12c-.02.04-.05.07-.09.09l-1.96.83s-.08.02-.12,0c-.04-.02-.07-.05-.09-.09l-1.78-4.22s-.31-.25-.36-.28c-.66-.4-1.49-.04-1.67.71-.01.06-.06.44-.05.46l1.78,4.22s.02.08,0,.12c-.02.04-.05.07-.09.09l-1.96.83s-.08.02-.12,0c-.04-.02-.07-.05-.09-.09l-1.78-4.22s-.27-.25-.32-.27c-.61-.4-1.49-.09-1.69.61-.04.14-.07.55-.03.66l1.73,4.1s.02.08,0,.12c-.02.04-.05.07-.09.09l-1.96.83s-.08.02-.12,0c-.04-.02-.07-.05-.09-.09l-1.83-4.33Z"/>
      <path class="cls-4" d="M533.07,270.27l.74,1.75s.02.1,0,.14h0s-.04.06-.06.07c-2.68,1.57-5.94-.13-6.04-3.3-.11-3.53,4.63-5.4,6.9-2.71.12.14.5.62.56.75l1.64,3.87s.02.08,0,.12h0s-.05.07-.09.09l-1.96.83s-.08.02-.12,0h0s-.07-.05-.09-.09l-1.61-3.81c-.22-.52-1.1-.84-1.63-.7-1.3.35-1.52,1.79-.68,2.73.55.62,1.55.58,2.23.18.08-.05.19-.02.23.07Z"/>
      <path class="cls-4" d="M577.64,253.48c4.98-2.7,8.42,4.72,3.67,6.94s-7.98-4.6-3.67-6.94ZM578.75,255.46c-1.8,1.09.27,4.19,1.94,2.65,1.29-1.18-.22-3.69-1.94-2.65Z"/>
      <path class="cls-4" d="M551.8,264.66l-2.02.85s-.08.02-.12,0h0s-.07-.05-.09-.09l-1.76-4.16c-.07-.17-.14-.93-.14-1.16.04-2.88,3.74-4.6,5.96-2.79.18.15.85.85.92,1.03l1.78,4.22s.02.08,0,.12h0s-.05.07-.09.09l-2.02.85s-.08.02-.12,0h0s-.07-.05-.09-.09l-1.66-3.93s-.21-.3-.24-.34c-.66-.76-1.94-.29-1.99.68,0,.07,0,.36.02.39l1.73,4.1c.03.08,0,.18-.09.21Z"/>
      <path class="cls-4" d="M540.29,257.98l4.08,9.64s.02.08,0,.12h0s-.05.07-.09.09l-2.08.88s-.08.02-.12,0h0s-.07-.05-.09-.09l-4.08-9.64c-.03-.08,0-.18.09-.21l2.08-.88c.08-.03.18,0,.21.09Z"/>
      <path class="cls-4" d="M536.41,259.62l4.08,9.64s.02.08,0,.12h0s-.05.07-.09.09l-2.02.85c-.08.03-.18,0-.21-.09l-4.08-9.64c-.03-.08,0-.18.09-.21l2.02-.85c.08-.03.18,0,.21.09Z"/>
      <rect class="cls-4" x="544.33" y="259.3" width="2.51" height="7.59" rx=".16" ry=".16" transform="translate(-59.39 233.3) rotate(-22.93)"/>
      <rect class="cls-4" x="572.35" y="255.68" width="2.51" height="7.4" rx=".16" ry=".16" transform="translate(-55.73 243.93) rotate(-22.93)"/>
      <path class="cls-4" d="M542.6,256.57c1.79-1.07,3.09,1.59,1.33,2.41-1.66.77-2.82-1.53-1.33-2.41Z"/>
      <path class="cls-4" d="M570.78,252.9c1.73-.88,2.87,1.61,1.28,2.44-1.69.89-2.99-1.57-1.28-2.44Z"/>
    </g>
  </g>
</svg>