<?xml version="1.0" encoding="UTF-8"?>
<svg xmlns="http://www.w3.org/2000/svg" xmlns:xlink="http://www.w3.org/1999/xlink" viewBox="0 0 800 505.08">
  <defs>
    <style>
      .cls-1 {
        stroke: #fff;
        stroke-dasharray: 12;
        stroke-miterlimit: 9;
        stroke-width: 7px;
      }

      .cls-1, .cls-2 {
        fill: none;
      }

      .cls-3 {
        fill: #171717;
      }

      .cls-4 {
        clip-path: url(#clippath-1);
      }

      .cls-5 {
        fill: #fff;
      }

      .cls-6 {
        fill: #282828;
      }

      .cls-7 {
        fill: #b31f2c;
      }

      .cls-8 {
        fill: #4a494a;
      }

      .cls-9 {
        clip-path: url(#clippath);
      }
    </style>
    <clipPath id="clippath">
      <rect class="cls-2" x="307.98" y="163.29" width="163.69" height="184.01"/>
    </clipPath>
    <clipPath id="clippath-1">
      <rect class="cls-2" x="200.24" y="43.45" width="290.99" height="451.66"/>
    </clipPath>
  </defs>
  <g id="Layer_9" data-name="Layer 9">
    <path class="cls-6" d="M67.88,395.19c17.14-12.2,35.2-24.51,54.19-36.82,21.91-14.2,43.34-27.27,64.12-39.3-12.35-27.76-24.71-55.53-37.06-83.29-21.29,10.98-44.54,24.37-68.84,40.69-24.12,16.2-45.17,32.54-63.29,47.99,16.96,23.58,33.92,47.16,50.88,70.74Z"/>
    <path class="cls-8" d="M75.93,373.34c14.66-12.88,34.76-27.65,61.29-40.58,9.97-4.86,19.64-8.87,28.76-12.19-6.88-20.98-13.77-41.96-20.65-62.94-18.78,9.26-39.01,20.29-59.96,33.4-18,11.27-34.03,22.5-48.18,33.27,12.91,16.35,25.82,32.69,38.73,49.04Z"/>
    <path class="cls-6" d="M736.04,395.26c-15.46-12.2-31.74-24.51-48.87-36.82-19.76-14.2-39.08-27.27-57.82-39.3,11.14-27.76,22.28-55.53,33.42-83.29,19.2,10.98,40.17,24.37,62.08,40.69,21.75,16.2,40.73,32.54,57.08,47.99-15.3,23.58-30.59,47.16-45.89,70.74Z"/>
    <path class="cls-8" d="M728.57,374.42c-13.1-13.12-31.07-28.17-54.79-41.33-8.91-4.95-17.56-9.03-25.71-12.41,6.15-21.37,12.31-42.74,18.46-64.11,16.78,9.43,34.87,20.67,53.6,34.02,16.09,11.48,30.42,22.92,43.06,33.89-11.54,16.65-23.08,33.3-34.62,49.95Z"/>
    <path class="cls-3" d="M644.47,259.38c6.15-7.84,12.3-15.69,18.45-23.53,6.78,14.7,13.57,29.4,20.35,44.1-12.93-6.86-25.87-13.72-38.8-20.57Z"/>
    <path class="cls-3" d="M160.36,261.2c-3.74-8.47-7.49-16.94-11.23-25.42-7.96,14.7-15.92,29.4-23.88,44.1,11.7-6.23,23.4-12.46,35.11-18.69Z"/>
    <path class="cls-6" d="M671.16,373c-37.94-24.08-132.41-76.91-264.11-78.28-134.83-1.4-232.14,51.92-270.22,75.54-3.86-30.13-7.71-60.25-11.57-90.38,43.07-24.98,143.45-75.48,280.63-75.08,135.31.39,234.32,50.1,277.4,75.08-4.04,31.04-8.08,62.07-12.12,93.11Z"/>
    <path class="cls-8" d="M665,346.79c-38.29-21.8-131.51-68.27-259.89-67.68-126.74.58-218.56,46.71-256.79,68.68-3.46-18.82-6.92-37.63-10.38-56.45,40.91-22.87,137.86-70.04,270.67-69.46,127.42.55,220.83,44.77,261.95,67.32-1.86,19.2-3.71,38.39-5.57,57.59Z"/>
    <rect class="cls-6" x="204.99" y="250.09" width="10.27" height="72.56" transform="translate(-57.96 53.36) rotate(-12.73)"/>
    <rect class="cls-6" x="282.5" y="226.86" width="10.27" height="72.56" transform="translate(-42.24 55.4) rotate(-10.25)"/>
    <rect class="cls-6" x="364.3" y="212.06" width="10.27" height="72.56" transform="translate(-12.02 18.89) rotate(-2.88)"/>
    <rect class="cls-6" x="444.23" y="213.49" width="10.27" height="72.56"/>
    <rect class="cls-6" x="522.35" y="223.71" width="10.27" height="72.56"/>
    <rect class="cls-6" x="596.29" y="255.57" width="10.27" height="72.56" transform="translate(22.49 -42.39) rotate(4.11)"/>
    <path class="cls-1" d="M133.34,285.53c43.37-24.37,140.04-71.05,271.25-71.36,132.7-.31,230.44,46.97,273.83,71.36"/>
    <path class="cls-1" d="M142.52,358.18c38.58-23.47,134.49-74.74,266.68-73.35,126,1.33,217.37,49.8,256.07,73.35"/>
    <path class="cls-1" d="M677.46,254.51c14.93,9.05,30.67,19.33,46.91,31.01,16.38,11.78,31.25,23.54,44.67,34.9"/>
    <path class="cls-1" d="M677.46,344.33c7.9,4.89,16.17,10.38,24.68,16.54,9.67,7.01,18.44,14.01,26.33,20.79"/>
    <path class="cls-1" d="M39.36,314.24c13.97-10.47,29.39-21.23,46.29-31.93,17.05-10.79,33.51-20.2,49.07-28.4"/>
    <path class="cls-1" d="M79.66,379.4c8.6-7.71,19.28-16.08,32.24-23.98,7.49-4.56,14.7-8.34,21.44-11.48"/>
    <g class="cls-9">
      <g class="cls-4">
        <path class="cls-6" d="M871.44,465.29c-70.44-42.81-245.8-136.72-490.3-139.16-250.31-2.5-430.95,92.3-501.64,134.3-7.16-53.55-14.32-107.11-21.48-160.66C-62.03,255.35,124.32,165.58,378.97,166.29c251.19.7,435,89.06,514.97,133.47-7.5,55.17-15,110.35-22.5,165.52Z"/>
        <path class="cls-7" d="M860.02,418.7c-71.09-38.76-244.14-121.36-482.46-120.31-235.28,1.03-405.74,83.03-476.71,122.09-6.42-33.45-12.85-66.9-19.27-100.35,75.94-40.65,255.93-124.51,502.48-123.48,236.55.99,409.96,79.6,486.3,119.68-3.45,34.13-6.9,68.25-10.34,102.38Z"/>
        <polygon class="cls-6" points="324.23 307.64 305.18 308.56 298.4 179.73 317.45 178.82 324.23 307.64"/>
        <rect class="cls-6" x="450.17" y="181.72" width="19.07" height="128.99"/>
        <path class="cls-1" d="M-126.98,309.79c80.51-43.33,259.97-126.31,503.56-126.85,246.34-.55,427.8,83.5,508.35,126.85"/>
        <path class="cls-1" d="M-109.93,438.95c71.62-41.72,249.68-132.87,495.08-130.39,233.92,2.36,403.54,88.52,475.38,130.39"/>
      </g>
    </g>
    <g>
      <path class="cls-5" d="M411.28,254.01v-3.02c0-.12.08-.23.2-.25,3.34-.63,6.93,1.81,7.26,5.27.84,8.66-11.98,9.82-12.55.9-.26-4.01.37-8.5,0-12.44-.28-3.03-4.47-2.92-4.78-.1-.24,2.2,1.42,3.31,3.4,3.08.15-.02.28.1.28.25v2.98c0,.12-.09.23-.21.25-5.27.95-9.22-4.65-6.48-9.36,2.85-4.89,10.94-3.42,11.64,2.33.48,4.03-.29,8.89.02,13.01.29,3.77,5.29,3.29,4.77-.59-.12-.93-1.17-2.05-2.13-2.05h-1.19c-.14,0-.25-.11-.25-.25Z"/>
      <path class="cls-5" d="M328.75,243.37c.47-4.62,6.34-6.38,9.41-3.04,2.47-2.78,7.5-2.11,8.96,1.4.17.42.45,1.41.45,1.84v7.26c0,.07-.03.13-.07.18-.05.05-.11.07-.18.07h-3.37c-.07,0-.13-.03-.18-.07-.05-.05-.07-.11-.07-.18v-7.26s-.3-.56-.35-.64c-.72-.99-2.16-.99-2.87,0-.06.08-.35.6-.35.64v7.26c0,.07-.03.13-.07.18-.05.05-.11.07-.18.07h-3.37c-.07,0-.13-.03-.18-.07-.05-.05-.07-.11-.07-.18v-7.26s-.25-.53-.3-.6c-.64-.95-2.11-1.06-2.84-.15-.15.18-.45.75-.45.95v7.06c0,.07-.03.13-.07.18-.05.05-.11.07-.18.07h-3.37c-.07,0-.13-.03-.18-.07-.05-.05-.07-.11-.07-.18v-7.45Z"/>
      <path class="cls-5" d="M356.93,247.7v3.01c0,.08-.03.15-.09.2h-.01s-.08.06-.13.07c-4.88.64-8.59-3.86-6.78-8.55,2.02-5.22,10.09-5.03,11.75.3.09.28.35,1.22.35,1.44v6.66c0,.07-.03.13-.07.18h0s-.11.07-.18.07h-3.37c-.07,0-.13-.03-.18-.07h0s-.07-.11-.07-.18v-6.56c0-.89-1.09-1.91-1.95-2.03-2.12-.29-3.32,1.67-2.68,3.57.42,1.25,1.9,1.81,3.14,1.65.15-.02.29.1.29.25Z"/>
      <path class="cls-5" d="M432.37,250.71c8.95-.87,9.38,12.1,1.07,12.4-8.1.3-8.81-11.65-1.07-12.4ZM432.76,254.29c-3.31.47-2.2,6.28,1.19,5.07,2.61-.93,1.96-5.52-1.19-5.07Z"/>
      <path class="cls-5" d="M387.73,251.08h-3.47c-.07,0-.13-.03-.18-.07h0s-.07-.11-.07-.18v-7.16c0-.3.37-1.45.51-1.78,1.84-4.18,8.3-4.4,10.42-.4.17.32.71,1.77.71,2.07v7.26c0,.07-.03.13-.07.18h0s-.11.07-.18.07h-3.47c-.07,0-.13-.03-.18-.07h0s-.07-.11-.07-.18v-6.76s-.12-.57-.15-.65c-.49-1.52-2.65-1.62-3.32-.23-.05.09-.22.53-.22.58v7.06c0,.14-.11.25-.25.25Z"/>
      <path class="cls-5" d="M375.04,234.22v16.6c0,.07-.03.13-.07.18h0s-.11.07-.18.07h-3.57c-.07,0-.13-.03-.18-.07h0s-.07-.11-.07-.18v-16.6c0-.14.11-.25.25-.25h3.57c.14,0,.25.11.25.25Z"/>
      <path class="cls-5" d="M368.37,234.22v16.6c0,.07-.03.13-.07.18h0s-.11.07-.18.07h-3.47c-.14,0-.25-.11-.25-.25v-16.6c0-.14.11-.25.25-.25h3.47c.14,0,.25.11.25.25Z"/>
      <rect class="cls-5" x="377.63" y="238.94" width="3.98" height="12.04" rx=".25" ry=".25"/>
      <rect class="cls-5" x="420.84" y="250.98" width="3.98" height="11.74" rx=".25" ry=".25"/>
      <path class="cls-5" d="M379.3,233.6c3.27-.45,3.53,4.24.46,4.34-2.89.1-3.17-3.97-.46-4.34Z"/>
      <path class="cls-5" d="M422.71,245.63c3.07-.22,3.2,4.12.37,4.36-3.01.25-3.39-4.14-.37-4.36Z"/>
    </g>
  </g>
  <g id="Layer_10" data-name="Layer 10">
    <path d="M449.28,92.43h-122.61c-15.09,0-27.31,12.23-27.31,27.31v286.82c0,15.09,12.23,27.31,27.31,27.31h122.61c15.09,0,27.31-12.23,27.31-27.31V119.74c0-15.09-12.23-27.31-27.31-27.31ZM466.35,389.77h-156.75v-254.07h156.75v254.07Z"/>
    <circle class="cls-5" cx="355.52" cy="114.91" r="2.15"/>
    <rect class="cls-5" x="365.65" y="112.76" width="44.65" height="4.3" rx="2.15" ry="2.15"/>
    <circle class="cls-5" cx="387.98" cy="410.96" r="12.8"/>
  </g>
</svg>