<?xml version="1.0" encoding="UTF-8"?>
<svg xmlns="http://www.w3.org/2000/svg" xmlns:xlink="http://www.w3.org/1999/xlink" viewBox="0 0 800 505.08">
  <defs>
    <style>
      .cls-1 {
        stroke: #fff;
        stroke-dasharray: 12;
        stroke-miterlimit: 9;
        stroke-width: 7px;
      }

      .cls-1, .cls-2 {
        fill: none;
      }

      .cls-3 {
        fill: #681213;
      }

      .cls-4 {
        fill: #46141a;
        stroke: #46141a;
        stroke-linecap: round;
        stroke-linejoin: round;
        stroke-width: 2px;
      }

      .cls-5 {
        fill: #961b1e;
      }

      .cls-6 {
        clip-path: url(#clippath-1);
      }

      .cls-7 {
        clip-path: url(#clippath-3);
      }

      .cls-8 {
        clip-path: url(#clippath-4);
      }

      .cls-9 {
        clip-path: url(#clippath-2);
      }

      .cls-10 {
        clip-path: url(#clippath-6);
      }

      .cls-11 {
        clip-path: url(#clippath-5);
      }

      .cls-12 {
        fill: #841618;
      }

      .cls-13 {
        fill: #282828;
      }

      .cls-14 {
        fill: #181818;
      }

      .cls-15 {
        fill: #b31f2c;
      }

      .cls-16 {
        fill: #7b1315;
      }

      .cls-17 {
        fill: #6b0d0e;
      }

      .cls-18 {
        clip-path: url(#clippath);
      }
    </style>
    <clipPath id="clippath">
      <circle class="cls-2" cx="400" cy="299.75" r="321.31"/>
    </clipPath>
    <clipPath id="clippath-1">
      <path class="cls-2" d="M433.82,270.45c-.38-.4-1.04-.37-1.45-.35-.91.04-1.59.46-1.94.72-.3,1.18-1.28,2.04-2.39,2.14-1.38.12-2.76-.95-2.97-2.5.05-.73-.12-1.38-.47-1.5-.41-.15-1.2.41-1.66,1.56-.27,1.06-1.26,1.73-2.22,1.62-.72-.09-1.35-.62-1.62-1.34-.21-.18-.4-.25-.53-.28-.55-.13-1.19.18-1.62.76-.41,1.13-1.58,1.83-2.78,1.65-1.23-.18-2.17-1.23-2.17-2.47-.1-.2-.31-.52-.68-.66-.64-.25-1.54.13-2.08,1-.05.07-1,1.34-2.64,1.24-1.66-.1-2.43-1.5-2.47-1.57-.14-.17-.61-.68-1.36-.77-.92-.11-1.88.45-2.36,1.41.31-31.38.62-62.77.93-94.15l41.98-.5c-.12,31.7-.25,63.4-.37,95.1-.41-.28-1.19-.74-2.22-.76-.36,0-1.34-.04-2.15.55-.48.35-.47.61-1.02.93-.23.14-.76.39-1.44.38-.2,0-1.4-.05-1.9-.83-.36-.55-.02-.96-.41-1.37Z"/>
    </clipPath>
    <clipPath id="clippath-2">
      <path class="cls-2" d="M457.27,270.45c.6-.4,1.63-.37,2.28-.35,1.43.04,2.49.46,3.04.72.47,1.18,2.01,2.04,3.76,2.14,2.18.12,4.34-.95,4.67-2.5-.08-.73.19-1.38.74-1.5.65-.15,1.88.41,2.61,1.56.43,1.06,1.98,1.73,3.48,1.62,1.13-.09,2.12-.62,2.54-1.34.32-.18.63-.25.83-.28.87-.13,1.86.18,2.54.76.64,1.13,2.49,1.83,4.37,1.65,1.94-.18,3.41-1.23,3.42-2.47.16-.2.49-.52,1.06-.66,1-.25,2.42.13,3.26,1,.08.07,1.57,1.34,4.15,1.24,2.6-.1,3.83-1.5,3.89-1.57.23-.17.97-.68,2.14-.77,1.44-.11,2.95.45,3.71,1.41-.49-31.38-.97-62.77-1.46-94.15l-65.99-.5c.2,31.7.39,63.4.59,95.1.64-.28,1.87-.74,3.48-.76.56,0,2.1-.04,3.37.55.76.35.74.61,1.6.93.37.14,1.19.39,2.27.38.31,0,2.2-.05,2.99-.83.56-.55.04-.96.65-1.37Z"/>
    </clipPath>
    <clipPath id="clippath-3">
      <path class="cls-2" d="M324.46,270.45c-.38-.4-1.04-.37-1.45-.35-.91.04-1.59.46-1.94.72-.3,1.18-1.28,2.04-2.39,2.14-1.38.12-2.76-.95-2.97-2.5.05-.73-.12-1.38-.47-1.5-.41-.15-1.2.41-1.66,1.56-.27,1.06-1.26,1.73-2.22,1.62-.72-.09-1.35-.62-1.62-1.34-.21-.18-.4-.25-.53-.28-.55-.13-1.19.18-1.62.76-.41,1.13-1.58,1.83-2.78,1.65-1.23-.18-2.17-1.23-2.17-2.47-.1-.2-.31-.52-.68-.66-.64-.25-1.54.13-2.08,1-.05.07-1,1.34-2.64,1.24-1.66-.1-2.43-1.5-2.47-1.57-.14-.17-.61-.68-1.36-.77-.92-.11-1.88.45-2.36,1.41.31-31.38.62-62.77.93-94.15l41.98-.5c-.12,31.7-.25,63.4-.37,95.1-.41-.28-1.19-.74-2.22-.76-.36,0-1.34-.04-2.15.55-.48.35-.47.61-1.02.93-.23.14-.76.39-1.44.38-.2,0-1.4-.05-1.9-.83-.36-.55-.02-.96-.41-1.37Z"/>
    </clipPath>
    <clipPath id="clippath-4">
      <path class="cls-2" d="M347.92,270.45c.6-.4,1.63-.37,2.28-.35,1.43.04,2.49.46,3.04.72.47,1.18,2.01,2.04,3.76,2.14,2.18.12,4.34-.95,4.67-2.5-.08-.73.19-1.38.74-1.5.65-.15,1.88.41,2.61,1.56.43,1.06,1.98,1.73,3.48,1.62,1.13-.09,2.12-.62,2.54-1.34.32-.18.63-.25.83-.28.87-.13,1.86.18,2.54.76.64,1.13,2.49,1.83,4.37,1.65,1.94-.18,3.41-1.23,3.42-2.47.16-.2.49-.52,1.06-.66,1-.25,2.42.13,3.26,1,.08.07,1.57,1.34,4.15,1.24,2.6-.1,3.83-1.5,3.89-1.57.23-.17.97-.68,2.14-.77,1.44-.11,2.95.45,3.71,1.41-.49-31.38-.97-62.77-1.46-94.15l-65.99-.5c.2,31.7.39,63.4.59,95.1.64-.28,1.87-.74,3.48-.76.56,0,2.1-.04,3.37.55.76.35.74.61,1.6.93.37.14,1.19.39,2.27.38.31,0,2.2-.05,2.99-.83.56-.55.04-.96.65-1.37Z"/>
    </clipPath>
    <clipPath id="clippath-5">
      <rect class="cls-2" x="1167.98" y="163.29" width="163.69" height="184.01"/>
    </clipPath>
    <clipPath id="clippath-6">
      <rect class="cls-2" x="1060.24" y="43.45" width="290.99" height="451.66"/>
    </clipPath>
  </defs>
  <g id="Layer_8" data-name="Layer 8">
    <g class="cls-18">
      <rect class="cls-14" x="282.54" y="160.83" width="235.75" height="127.75" rx="11.3" ry="11.3"/>
      <path class="cls-15" d="M380.14,267.46c.58-.39,1.57-.36,2.2-.34,1.38.04,2.41.45,2.94.7.45,1.14,1.94,1.97,3.63,2.06,2.1.12,4.2-.92,4.51-2.42-.07-.71.19-1.33.71-1.45.63-.14,1.82.4,2.52,1.51.41,1.03,1.92,1.68,3.37,1.56,1.1-.08,2.05-.59,2.46-1.3.31-.17.61-.24.8-.27.84-.12,1.8.17,2.46.73.62,1.09,2.4,1.76,4.22,1.6,1.87-.17,3.29-1.19,3.3-2.39.16-.2.47-.51,1.03-.64.97-.24,2.33.12,3.15.96.08.07,1.52,1.29,4.01,1.2,2.51-.1,3.69-1.45,3.76-1.52.22-.16.93-.65,2.07-.74,1.39-.11,2.85.43,3.58,1.36-.47-30.31-.94-60.62-1.41-90.93l-63.74-.48c.19,30.62.38,61.23.57,91.85.62-.27,1.8-.71,3.37-.73.54,0,2.03-.04,3.26.53.73.34.71.59,1.55.9.35.13,1.15.38,2.19.37.3,0,2.12-.05,2.88-.8.54-.53.04-.92.63-1.32Z"/>
      <path class="cls-15" d="M433.82,270.45c-.38-.4-1.04-.37-1.45-.35-.91.04-1.59.46-1.94.72-.3,1.18-1.28,2.04-2.39,2.14-1.38.12-2.76-.95-2.97-2.5.05-.73-.12-1.38-.47-1.5-.41-.15-1.2.41-1.66,1.56-.27,1.06-1.26,1.73-2.22,1.62-.72-.09-1.35-.62-1.62-1.34-.21-.18-.4-.25-.53-.28-.55-.13-1.19.18-1.62.76-.41,1.13-1.58,1.83-2.78,1.65-1.23-.18-2.17-1.23-2.17-2.47-.1-.2-.31-.52-.68-.66-.64-.25-1.54.13-2.08,1-.05.07-1,1.34-2.64,1.24-1.66-.1-2.43-1.5-2.47-1.57-.14-.17-.61-.68-1.36-.77-.92-.11-1.88.45-2.36,1.41.31-31.38.62-62.77.93-94.15l41.98-.5c-.12,31.7-.25,63.4-.37,95.1-.41-.28-1.19-.74-2.22-.76-.36,0-1.34-.04-2.15.55-.48.35-.47.61-1.02.93-.23.14-.76.39-1.44.38-.2,0-1.4-.05-1.9-.83-.36-.55-.02-.96-.41-1.37Z"/>
      <g class="cls-6">
        <rect class="cls-3" x="438.39" y="174.85" width=".71" height="99.13" transform="translate(877.49 448.83) rotate(180)"/>
        <rect class="cls-3" x="442.98" y="174.85" width=".71" height="99.13" transform="translate(886.66 448.83) rotate(180)"/>
        <rect class="cls-3" x="433.81" y="175.06" width=".71" height="99.13" transform="translate(868.32 449.24) rotate(180)"/>
        <rect class="cls-3" x="430.29" y="175.14" width=".71" height="99.13" transform="translate(861.29 449.4) rotate(180)"/>
        <rect class="cls-3" x="424.93" y="173.7" width=".71" height="99.13" transform="translate(850.57 446.54) rotate(180)"/>
        <rect class="cls-3" x="421.87" y="175.14" width=".71" height="99.13" transform="translate(844.46 449.4) rotate(180)"/>
        <rect class="cls-3" x="418.82" y="175.14" width=".71" height="99.13" transform="translate(838.35 449.4) rotate(180)"/>
        <rect class="cls-3" x="416.55" y="175.14" width=".71" height="99.13" transform="translate(833.8 449.4) rotate(180)"/>
        <rect class="cls-3" x="412.15" y="175.14" width=".71" height="99.13" transform="translate(825 449.4) rotate(180)"/>
        <rect class="cls-3" x="409.33" y="175.14" width=".71" height="99.13" transform="translate(819.37 449.4) rotate(180)"/>
        <rect class="cls-3" x="404.13" y="175.06" width=".71" height="99.13" transform="translate(808.97 449.24) rotate(180)"/>
        <path class="cls-3" d="M402.33,172.19c-.71.08-1.41.15-2.12.23v99.13h.71c-.12-22.03.04-44.47.52-67.32.23-10.77.52-21.45.88-32.04Z"/>
      </g>
      <path class="cls-15" d="M457.27,270.45c.6-.4,1.63-.37,2.28-.35,1.43.04,2.49.46,3.04.72.47,1.18,2.01,2.04,3.76,2.14,2.18.12,4.34-.95,4.67-2.5-.08-.73.19-1.38.74-1.5.65-.15,1.88.41,2.61,1.56.43,1.06,1.98,1.73,3.48,1.62,1.13-.09,2.12-.62,2.54-1.34.32-.18.63-.25.83-.28.87-.13,1.86.18,2.54.76.64,1.13,2.49,1.83,4.37,1.65,1.94-.18,3.41-1.23,3.42-2.47.16-.2.49-.52,1.06-.66,1-.25,2.42.13,3.26,1,.08.07,1.57,1.34,4.15,1.24,2.6-.1,3.83-1.5,3.89-1.57.23-.17.97-.68,2.14-.77,1.44-.11,2.95.45,3.71,1.41-.49-31.38-.97-62.77-1.46-94.15l-65.99-.5c.2,31.7.39,63.4.59,95.1.64-.28,1.87-.74,3.48-.76.56,0,2.1-.04,3.37.55.76.35.74.61,1.6.93.37.14,1.19.39,2.27.38.31,0,2.2-.05,2.99-.83.56-.55.04-.96.65-1.37Z"/>
      <g class="cls-9">
        <rect class="cls-3" x="448.97" y="174.85" width="1.11" height="99.13"/>
        <rect class="cls-3" x="441.76" y="174.85" width="1.11" height="99.13"/>
        <rect class="cls-3" x="456.18" y="175.06" width="1.11" height="99.13"/>
        <rect class="cls-3" x="461.7" y="175.14" width="1.11" height="99.13"/>
        <rect class="cls-3" x="470.13" y="173.7" width="1.11" height="99.13"/>
        <rect class="cls-3" x="474.93" y="175.14" width="1.11" height="99.13"/>
        <rect class="cls-3" x="479.73" y="175.14" width="1.11" height="99.13"/>
        <rect class="cls-3" x="483.31" y="175.14" width="1.11" height="99.13"/>
        <rect class="cls-3" x="490.22" y="175.14" width="1.11" height="99.13"/>
        <rect class="cls-3" x="494.65" y="175.14" width="1.11" height="99.13"/>
        <rect class="cls-3" x="502.83" y="175.06" width="1.11" height="99.13"/>
        <path class="cls-3" d="M506.77,172.19c1.11.08,2.22.15,3.33.23v99.13h-1.11c.2-22.03-.06-44.47-.82-67.32-.36-10.77-.83-21.45-1.39-32.04Z"/>
      </g>
      <path class="cls-15" d="M324.46,270.45c-.38-.4-1.04-.37-1.45-.35-.91.04-1.59.46-1.94.72-.3,1.18-1.28,2.04-2.39,2.14-1.38.12-2.76-.95-2.97-2.5.05-.73-.12-1.38-.47-1.5-.41-.15-1.2.41-1.66,1.56-.27,1.06-1.26,1.73-2.22,1.62-.72-.09-1.35-.62-1.62-1.34-.21-.18-.4-.25-.53-.28-.55-.13-1.19.18-1.62.76-.41,1.13-1.58,1.83-2.78,1.65-1.23-.18-2.17-1.23-2.17-2.47-.1-.2-.31-.52-.68-.66-.64-.25-1.54.13-2.08,1-.05.07-1,1.34-2.64,1.24-1.66-.1-2.43-1.5-2.47-1.57-.14-.17-.61-.68-1.36-.77-.92-.11-1.88.45-2.36,1.41.31-31.38.62-62.77.93-94.15l41.98-.5c-.12,31.7-.25,63.4-.37,95.1-.41-.28-1.19-.74-2.22-.76-.36,0-1.34-.04-2.15.55-.48.35-.47.61-1.02.93-.23.14-.76.39-1.44.38-.2,0-1.4-.05-1.9-.83-.36-.55-.02-.96-.41-1.37Z"/>
      <g class="cls-7">
        <rect class="cls-3" x="329.04" y="174.85" width=".71" height="99.13" transform="translate(658.78 448.83) rotate(180)"/>
        <rect class="cls-3" x="333.62" y="174.85" width=".71" height="99.13" transform="translate(667.96 448.83) rotate(180)"/>
        <rect class="cls-3" x="324.45" y="175.06" width=".71" height="99.13" transform="translate(649.61 449.24) rotate(180)"/>
        <rect class="cls-3" x="320.94" y="175.14" width=".71" height="99.13" transform="translate(642.59 449.4) rotate(180)"/>
        <rect class="cls-3" x="315.58" y="173.7" width=".71" height="99.13" transform="translate(631.86 446.54) rotate(180)"/>
        <rect class="cls-3" x="312.52" y="175.14" width=".71" height="99.13" transform="translate(625.75 449.4) rotate(180)"/>
        <rect class="cls-3" x="309.47" y="175.14" width=".71" height="99.13" transform="translate(619.64 449.4) rotate(180)"/>
        <rect class="cls-3" x="307.19" y="175.14" width=".71" height="99.13" transform="translate(615.1 449.4) rotate(180)"/>
        <rect class="cls-3" x="302.79" y="175.14" width=".71" height="99.13" transform="translate(606.3 449.4) rotate(180)"/>
        <rect class="cls-3" x="299.98" y="175.14" width=".71" height="99.13" transform="translate(600.66 449.4) rotate(180)"/>
        <rect class="cls-3" x="294.78" y="175.06" width=".71" height="99.13" transform="translate(590.26 449.24) rotate(180)"/>
        <path class="cls-3" d="M292.98,172.19c-.71.08-1.41.15-2.12.23v99.13h.71c-.12-22.03.04-44.47.52-67.32.23-10.77.52-21.45.88-32.04Z"/>
      </g>
      <path class="cls-15" d="M347.92,270.45c.6-.4,1.63-.37,2.28-.35,1.43.04,2.49.46,3.04.72.47,1.18,2.01,2.04,3.76,2.14,2.18.12,4.34-.95,4.67-2.5-.08-.73.19-1.38.74-1.5.65-.15,1.88.41,2.61,1.56.43,1.06,1.98,1.73,3.48,1.62,1.13-.09,2.12-.62,2.54-1.34.32-.18.63-.25.83-.28.87-.13,1.86.18,2.54.76.64,1.13,2.49,1.83,4.37,1.65,1.94-.18,3.41-1.23,3.42-2.47.16-.2.49-.52,1.06-.66,1-.25,2.42.13,3.26,1,.08.07,1.57,1.34,4.15,1.24,2.6-.1,3.83-1.5,3.89-1.57.23-.17.97-.68,2.14-.77,1.44-.11,2.95.45,3.71,1.41-.49-31.38-.97-62.77-1.46-94.15l-65.99-.5c.2,31.7.39,63.4.59,95.1.64-.28,1.87-.74,3.48-.76.56,0,2.1-.04,3.37.55.76.35.74.61,1.6.93.37.14,1.19.39,2.27.38.31,0,2.2-.05,2.99-.83.56-.55.04-.96.65-1.37Z"/>
      <g class="cls-8">
        <rect class="cls-3" x="339.62" y="174.85" width="1.11" height="99.13"/>
        <rect class="cls-3" x="332.41" y="174.85" width="1.11" height="99.13"/>
        <rect class="cls-3" x="346.83" y="175.06" width="1.11" height="99.13"/>
        <rect class="cls-3" x="352.35" y="175.14" width="1.11" height="99.13"/>
        <rect class="cls-3" x="360.78" y="173.7" width="1.11" height="99.13"/>
        <rect class="cls-3" x="365.58" y="175.14" width="1.11" height="99.13"/>
        <rect class="cls-3" x="370.38" y="175.14" width="1.11" height="99.13"/>
        <rect class="cls-3" x="373.95" y="175.14" width="1.11" height="99.13"/>
        <rect class="cls-3" x="380.87" y="175.14" width="1.11" height="99.13"/>
        <rect class="cls-3" x="385.3" y="175.14" width="1.11" height="99.13"/>
        <rect class="cls-3" x="393.47" y="175.06" width="1.11" height="99.13"/>
        <path class="cls-3" d="M397.42,172.19c1.11.08,2.22.15,3.33.23v99.13h-1.11c.2-22.03-.06-44.47-.82-67.32-.36-10.77-.83-21.45-1.39-32.04Z"/>
      </g>
      <rect class="cls-4" x="290.1" y="177.07" width="220.88" height=".6"/>
      <rect class="cls-17" x="260.56" y="296.15" width="278.88" height="34.94"/>
      <rect class="cls-16" x="260.56" y="281.33" width="278.88" height="30.1" rx="6.96" ry="6.96"/>
      <rect class="cls-12" x="293.48" y="322.3" width="61.29" height="42.04" rx="8.41" ry="8.41"/>
      <path class="cls-5" d="M310.38,312h27.49c9.33,0,16.9,7.57,16.9,16.9h-61.29c0-9.33,7.57-16.9,16.9-16.9Z"/>
      <rect class="cls-12" x="359.92" y="322.3" width="61.29" height="42.04" rx="8.41" ry="8.41"/>
      <path class="cls-5" d="M376.82,312h27.49c9.33,0,16.9,7.57,16.9,16.9h-61.29c0-9.33,7.57-16.9,16.9-16.9Z"/>
      <rect class="cls-12" x="426.36" y="322.19" width="61.29" height="42.04" rx="8.41" ry="8.41"/>
      <path class="cls-5" d="M443.26,311.89h27.49c9.33,0,16.9,7.57,16.9,16.9h-61.29c0-9.33,7.57-16.9,16.9-16.9Z"/>
      <rect class="cls-12" x="492.8" y="321.82" width="61.29" height="42.04" rx="8.41" ry="8.41"/>
      <path class="cls-5" d="M509.7,311.52h27.49c9.33,0,16.9,7.57,16.9,16.9h-61.29c0-9.33,7.57-16.9,16.9-16.9Z"/>
      <rect class="cls-12" x="227.04" y="321.47" width="61.29" height="42.04" rx="8.41" ry="8.41"/>
      <path class="cls-5" d="M243.94,311.17h27.49c9.33,0,16.9,7.57,16.9,16.9h-61.29c0-9.33,7.57-16.9,16.9-16.9Z"/>
      <rect class="cls-12" x="559.2" y="321.82" width="61.29" height="42.04" rx="8.41" ry="8.41"/>
      <path class="cls-5" d="M576.1,311.52h27.49c9.33,0,16.9,7.57,16.9,16.9h-61.29c0-9.33,7.57-16.9,16.9-16.9Z"/>
      <rect class="cls-12" x="160.6" y="321.65" width="61.29" height="42.04" rx="8.41" ry="8.41"/>
      <path class="cls-5" d="M177.5,311.35h27.49c9.33,0,16.9,7.57,16.9,16.9h-61.29c0-9.33,7.57-16.9,16.9-16.9Z"/>
      <rect class="cls-12" x="625.6" y="321.31" width="61.29" height="42.04" rx="8.41" ry="8.41"/>
      <path class="cls-5" d="M642.5,311.01h27.49c9.33,0,16.9,7.57,16.9,16.9h-61.29c0-9.33,7.57-16.9,16.9-16.9Z"/>
      <rect class="cls-12" x="93.3" y="321.65" width="61.29" height="42.04" rx="8.41" ry="8.41"/>
      <path class="cls-5" d="M110.2,311.35h27.49c9.33,0,16.9,7.57,16.9,16.9h-61.29c0-9.33,7.57-16.9,16.9-16.9Z"/>
      <rect class="cls-12" x="255.55" y="352.12" width="85.05" height="58.33" rx="8.41" ry="8.41"/>
      <path class="cls-5" d="M273.41,337.83h49.31c9.86,0,17.87,8.01,17.87,17.87v5.59h-85.05v-5.59c0-9.86,8.01-17.87,17.87-17.87Z"/>
      <rect class="cls-12" x="347.73" y="352.12" width="85.05" height="58.33" rx="8.41" ry="8.41"/>
      <path class="cls-5" d="M365.6,337.83h49.31c9.86,0,17.87,8.01,17.87,17.87v5.59h-85.05v-5.59c0-9.86,8.01-17.87,17.87-17.87Z"/>
      <rect class="cls-12" x="439.92" y="351.96" width="85.05" height="58.33" rx="8.41" ry="8.41"/>
      <path class="cls-5" d="M457.79,337.67h49.31c9.86,0,17.87,8.01,17.87,17.87v5.59h-85.05v-5.59c0-9.86,8.01-17.87,17.87-17.87Z"/>
      <rect class="cls-12" x="532.11" y="351.45" width="85.05" height="58.33" rx="8.41" ry="8.41"/>
      <path class="cls-5" d="M549.98,337.16h49.31c9.86,0,17.87,8.01,17.87,17.87v5.59h-85.05v-5.59c0-9.86,8.01-17.87,17.87-17.87Z"/>
      <rect class="cls-12" x="163.36" y="350.96" width="85.05" height="58.33" rx="8.41" ry="8.41"/>
      <path class="cls-5" d="M181.23,336.67h49.31c9.86,0,17.87,8.01,17.87,17.87v5.59h-85.05v-5.59c0-9.86,8.01-17.87,17.87-17.87Z"/>
      <rect class="cls-12" x="624.25" y="351.45" width="85.05" height="58.33" rx="8.41" ry="8.41"/>
      <path class="cls-5" d="M642.12,337.16h49.31c9.86,0,17.87,8.01,17.87,17.87v5.59h-85.05v-5.59c0-9.86,8.01-17.87,17.87-17.87Z"/>
      <rect class="cls-12" x="71.17" y="351.22" width="85.05" height="58.33" rx="8.41" ry="8.41"/>
      <path class="cls-5" d="M89.04,336.93h49.31c9.86,0,17.87,8.01,17.87,17.87v5.59h-85.05v-5.59c0-9.86,8.01-17.87,17.87-17.87Z"/>
      <rect class="cls-12" x="202.17" y="399.73" width="118.73" height="81.43" rx="8.41" ry="8.41"/>
      <path class="cls-5" d="M220.04,379.78h82.99c9.86,0,17.87,8.01,17.87,17.87v14.87h-118.73v-14.87c0-9.86,8.01-17.87,17.87-17.87Z"/>
      <rect class="cls-12" x="330.87" y="399.73" width="118.73" height="81.43" rx="8.41" ry="8.41"/>
      <path class="cls-5" d="M348.74,379.78h82.99c9.86,0,17.87,8.01,17.87,17.87v14.87h-118.73v-14.87c0-9.86,8.01-17.87,17.87-17.87Z"/>
      <rect class="cls-12" x="459.57" y="399.51" width="118.73" height="81.43" rx="8.41" ry="8.41"/>
      <path class="cls-5" d="M477.44,379.56h82.99c9.86,0,17.87,8.01,17.87,17.87v14.87h-118.73v-14.87c0-9.86,8.01-17.87,17.87-17.87Z"/>
      <rect class="cls-12" x="588.27" y="398.79" width="118.73" height="81.43" rx="8.41" ry="8.41"/>
      <path class="cls-5" d="M606.13,378.84h82.99c9.86,0,17.87,8.01,17.87,17.87v14.87h-118.73v-14.87c0-9.86,8.01-17.87,17.87-17.87Z"/>
      <rect class="cls-12" x="73.47" y="398.12" width="118.73" height="81.43" rx="8.41" ry="8.41"/>
      <path class="cls-5" d="M91.34,378.17h82.99c9.86,0,17.87,8.01,17.87,17.87v14.87h-118.73v-14.87c0-9.86,8.01-17.87,17.87-17.87Z"/>
    </g>
  </g>
  <g id="Layer_9" data-name="Layer 9">
    <g class="cls-11">
      <g class="cls-10">
        <path class="cls-13" d="M1731.44,465.29c-70.44-42.81-245.8-136.72-490.3-139.16-250.31-2.5-430.95,92.3-501.64,134.3-7.16-53.55-14.32-107.11-21.48-160.66,79.96-44.41,266.31-134.18,520.96-133.47,251.19.7,435,89.06,514.97,133.47-7.5,55.17-15,110.35-22.5,165.52Z"/>
        <path class="cls-15" d="M1720.02,418.7c-71.09-38.76-244.14-121.36-482.46-120.31-235.28,1.03-405.74,83.03-476.71,122.09-6.42-33.45-12.85-66.9-19.27-100.35,75.94-40.65,255.93-124.51,502.48-123.48,236.55.99,409.96,79.6,486.3,119.68-3.45,34.13-6.9,68.25-10.34,102.38Z"/>
        <path class="cls-1" d="M733.02,309.79c80.51-43.33,259.97-126.31,503.56-126.85,246.34-.55,427.8,83.5,508.35,126.85"/>
        <path class="cls-1" d="M750.07,438.95c71.62-41.72,249.68-132.87,495.08-130.39,233.92,2.36,403.54,88.52,475.38,130.39"/>
      </g>
    </g>
  </g>
</svg>