<?xml version="1.0" encoding="UTF-8"?>
<svg id="Layer_5" data-name="Layer 5" xmlns="http://www.w3.org/2000/svg" viewBox="0 0 100 100">
  <defs>
    <style>
      .cls-1 {
        fill: #fff;
        stroke: #fff;
        stroke-linecap: round;
        stroke-miterlimit: 10;
        stroke-width: 3px;
      }

      .cls-2 {
        fill: #b4202c;
      }

      .cls-3 {
        fill: #ee3451;
      }
    </style>
  </defs>
  <path class="cls-3" d="M4.25,48.25v-11.26c.28-1.26.86-2.84,2.12-4.1,2.15-2.12,5.13-2.13,6.22-2.13,5.66,0,34.81-.15,74.75-.11.44-.04,3.06-.24,5.2,1.83,1.69,1.64,2.04,3.69,2.12,4.3v10.52c-5.86.1-10.55,5.31-10.41,11.39.13,5.88,4.74,10.76,10.41,10.85v9.83c-.09.69-.38,2.31-1.58,3.83-1.49,1.89-3.41,2.39-4.01,2.52H11.57c-.59.03-2.64.08-4.62-1.43-1.92-1.47-2.54-3.48-2.71-4.09v-10.03c6.06.03,10.87-5.38,10.6-11.47-.25-5.73-4.92-10.48-10.6-10.44Z"/>
  <line class="cls-1" x1="36.27" y1="30.7" x2="36.27" y2="36.85"/>
  <line class="cls-1" x1="36.27" y1="44.67" x2="36.27" y2="52.67"/>
  <line class="cls-1" x1="36.27" y1="61.71" x2="36.27" y2="70.05"/>
  <path class="cls-1" d="M36.27,77.53v6.62"/>
  <path class="cls-2" d="M12.59,30.76c32.08-12.04,55.38-20.76,59.83-22.61.78-.32,3.19-1.36,5.24-.34,1.71.85,2.36,2.73,2.66,3.59,1.42,4.05,3.89,10.66,7.03,19.25"/>
</svg>